<svg width="24" height="24" viewBox="0 0 24 24" fill="none" xmlns="http://www.w3.org/2000/svg">
<path fill-rule="evenodd" clip-rule="evenodd" d="M2 1C1.44772 1 1 1.44772 1 2C1 2.55228 1.44772 3 2 3H3.1327L4.76474 14.4243C4.97588 15.9022 6.24164 17 7.73459 17H17.3957C18.8018 17 20.0192 16.0234 20.3242 14.6508L20.6429 13.2169C20.7627 12.6778 20.4227 12.1436 19.8836 12.0238C19.3445 11.904 18.8103 12.2439 18.6905 12.7831L18.3718 14.2169C18.2702 14.6745 17.8644 15 17.3957 15H7.73459C7.23694 15 6.81502 14.6341 6.74464 14.1414L5.72444 7H12C12.5523 7 13 6.55228 13 6C13 5.44772 12.5523 5 12 5H5.43872L4.98995 1.85858C4.91957 1.36593 4.49765 1 4 1H2ZM19 2C19.5523 2 20 2.44772 20 3V5H22C22.5523 5 23 5.44772 23 6C23 6.55228 22.5523 7 22 7H20V8.99996C20 9.55224 19.5523 9.99996 19 9.99996C18.4477 9.99996 18 9.55224 18 8.99996V7H16C15.4477 7 15 6.55228 15 6C15 5.44772 15.4477 5 16 5H18V3C18 2.44772 18.4477 2 19 2ZM10 21C10 22.1046 9.10457 23 8 23C6.89543 23 6 22.1046 6 21C6 19.8954 6.89543 19 8 19C9.10457 19 10 19.8954 10 21ZM17 23C18.1046 23 19 22.1046 19 21C19 19.8954 18.1046 19 17 19C15.8954 19 15 19.8954 15 21C15 22.1046 15.8954 23 17 23Z" fill="white"/>
</svg>
