<svg width="120" height="40" viewBox="0 0 120 40" fill="none" xmlns="http://www.w3.org/2000/svg">
<g clip-path="url(#clip0_29_165)">
<path d="M114 0.5H6C2.96243 0.5 0.5 2.96243 0.5 6V34C0.5 37.0376 2.96243 39.5 6 39.5H114C117.038 39.5 119.5 37.0376 119.5 34V6C119.5 2.96243 117.038 0.5 114 0.5Z" fill="black"/>
<path d="M114 0.5H6C2.96243 0.5 0.5 2.96243 0.5 6V34C0.5 37.0376 2.96243 39.5 6 39.5H114C117.038 39.5 119.5 37.0376 119.5 34V6C119.5 2.96243 117.038 0.5 114 0.5Z" stroke="#A6A6A6"/>
<path d="M17.805 19.4617L8.08984 30.0059C8.09075 30.0078 8.09075 30.0106 8.09166 30.0125C8.39005 31.1574 9.41203 32 10.6256 32C11.111 32 11.5664 31.8656 11.9569 31.6305L11.9879 31.6118L22.9231 25.1593L17.805 19.4617Z" fill="#EA4335"/>
<path d="M27.6332 17.6661L27.6241 17.6596L22.9029 14.8611L17.584 19.7012L22.922 25.1581L27.6177 22.3877C28.4407 21.9323 29.0001 21.0449 29.0001 20.0222C29.0001 19.0051 28.449 18.1224 27.6332 17.6661Z" fill="#FBBC04"/>
<path d="M8.08942 9.99341C8.03102 10.2136 8 10.445 8 10.6839V29.3164C8 29.5553 8.03102 29.7867 8.09034 30.006L18.1386 19.7314L8.08942 9.99341Z" fill="#4285F4"/>
<path d="M17.8762 19.9999L22.904 14.8594L11.9815 8.38351C11.5846 8.13996 11.121 8 10.6256 8C9.41198 8 8.38817 8.84447 8.08979 9.99034L8.08887 9.99314L17.8762 19.9999Z" fill="#34A853"/>
<path d="M43.6101 11.7099C43.6101 12.7099 43.3134 13.5066 42.7201 14.0999C42.0534 14.8066 41.1768 15.1599 40.0901 15.1599C39.0501 15.1599 38.1701 14.7999 37.4501 14.0799C36.7301 13.3599 36.3701 12.4732 36.3701 11.4199C36.3701 10.3666 36.7301 9.47993 37.4501 8.75993C38.1701 8.03993 39.0501 7.67993 40.0901 7.67993C40.6168 7.67993 41.1134 7.77326 41.5801 7.95993C42.0468 8.1466 42.4301 8.40993 42.7301 8.74993L42.0701 9.40993C41.8501 9.14326 41.5634 8.9366 41.2101 8.78993C40.8634 8.6366 40.4901 8.55993 40.0901 8.55993C39.3101 8.55993 38.6501 8.82993 38.1101 9.36993C37.5768 9.9166 37.3101 10.5999 37.3101 11.4199C37.3101 12.2399 37.5768 12.9232 38.1101 13.4699C38.6501 14.0099 39.3101 14.2799 40.0901 14.2799C40.8034 14.2799 41.3968 14.0799 41.8701 13.6799C42.3434 13.2799 42.6168 12.7299 42.6901 12.0299H40.0901V11.1699H43.5601C43.5934 11.3566 43.6101 11.5366 43.6101 11.7099ZM48.9079 7.83993V8.71993H45.6479V10.9899H48.5879V11.8499H45.6479V14.1199H48.9079V14.9999H44.7279V7.83993H48.9079ZM52.5878 8.71993V14.9999H51.6678V8.71993H49.6678V7.83993H54.5878V8.71993H52.5878ZM58.6655 14.9999H57.7455V7.83993H58.6655V14.9999ZM62.5488 8.71993V14.9999H61.6288V8.71993H59.6288V7.83993H64.5488V8.71993H62.5488ZM74.5211 11.4199C74.5211 12.4799 74.1678 13.3666 73.4611 14.0799C72.7478 14.7999 71.8744 15.1599 70.8411 15.1599C69.8011 15.1599 68.9278 14.7999 68.2211 14.0799C67.5144 13.3666 67.1611 12.4799 67.1611 11.4199C67.1611 10.3599 67.5144 9.47326 68.2211 8.75993C68.9278 8.03993 69.8011 7.67993 70.8411 7.67993C71.8811 7.67993 72.7544 8.04326 73.4611 8.76993C74.1678 9.48326 74.5211 10.3666 74.5211 11.4199ZM68.1011 11.4199C68.1011 12.2466 68.3611 12.9299 68.8811 13.4699C69.4078 14.0099 70.0611 14.2799 70.8411 14.2799C71.6211 14.2799 72.2711 14.0099 72.7911 13.4699C73.3178 12.9366 73.5811 12.2532 73.5811 11.4199C73.5811 10.5866 73.3178 9.90326 72.7911 9.36993C72.2711 8.82993 71.6211 8.55993 70.8411 8.55993C70.0611 8.55993 69.4078 8.82993 68.8811 9.36993C68.3611 9.90993 68.1011 10.5932 68.1011 11.4199ZM76.5268 14.9999H75.6068V7.83993H76.7268L80.2068 13.4099H80.2468L80.2068 12.0299V7.83993H81.1268V14.9999H80.1668L76.5268 9.15993H76.4868L76.5268 10.5399V14.9999Z" fill="white"/>
<path d="M93.5181 31.4097H95.1469V20.3981H93.5181V31.4097ZM108.189 24.3646L106.322 29.1388H106.266L104.328 24.3646H102.573L105.479 31.0371L103.823 34.749H105.521L110 24.3646H108.189ZM98.9519 30.1588C98.4176 30.1588 97.6739 29.8902 97.6739 29.2234C97.6739 28.3742 98.6001 28.0483 99.4005 28.0483C100.116 28.0483 100.454 28.2042 100.889 28.4165C100.762 29.4365 99.892 30.1588 98.9519 30.1588ZM99.1483 24.1241C97.969 24.1241 96.7469 24.6482 96.2424 25.8101L97.6879 26.4188C97.9969 25.8101 98.5721 25.611 99.1762 25.611C100.019 25.611 100.875 26.121 100.889 27.0283V27.1411C100.594 26.971 99.9627 26.7165 99.1902 26.7165C97.632 26.7165 96.0451 27.5806 96.0451 29.1952C96.0451 30.6689 97.323 31.6184 98.7546 31.6184C99.8501 31.6184 100.454 31.1225 100.833 30.5411H100.889V31.3912H102.461V27.1692C102.461 25.2146 101.015 24.1241 99.1483 24.1241ZM89.0821 25.7053H86.7655V21.9308H89.0821C90.2998 21.9308 90.9911 22.9482 90.9911 23.8176C90.9911 24.6711 90.2998 25.7053 89.0821 25.7053ZM89.0402 20.3981H85.1375V31.4097H86.7655V27.2379H89.0402C90.8453 27.2379 92.6199 25.9184 92.6199 23.8176C92.6199 21.7168 90.8453 20.3981 89.0402 20.3981ZM67.7583 30.1606C66.6332 30.1606 65.6913 29.2102 65.6913 27.9047C65.6913 26.5852 66.6332 25.6198 67.7583 25.6198C68.8695 25.6198 69.7406 26.5852 69.7406 27.9047C69.7406 29.2102 68.8695 30.1606 67.7583 30.1606ZM69.6289 24.9812H69.5722C69.2064 24.5417 68.5038 24.1444 67.6178 24.1444C65.7611 24.1444 64.0599 25.7898 64.0599 27.9047C64.0599 30.0047 65.7611 31.6369 67.6178 31.6369C68.5038 31.6369 69.2064 31.2396 69.5722 30.7851H69.6289V31.3251C69.6289 32.7582 68.8695 33.5246 67.6457 33.5246C66.6471 33.5246 66.0282 32.8005 65.7751 32.1901L64.3549 32.7864C64.7626 33.78 65.8458 35 67.6457 35C69.5582 35 71.1757 33.8646 71.1757 31.0978V24.3708H69.6289V24.9812ZM72.3008 31.4097H73.9323V20.3973H72.3008V31.4097ZM76.3362 27.777C76.2943 26.3298 77.4474 25.5916 78.2766 25.5916C78.9243 25.5916 79.4725 25.9176 79.6549 26.3862L76.3362 27.777ZM81.3989 26.528C81.0899 25.6912 80.1472 24.1444 78.2208 24.1444C76.3083 24.1444 74.7196 25.6621 74.7196 27.8907C74.7196 29.9906 76.2943 31.6369 78.4032 31.6369C80.1053 31.6369 81.0899 30.5869 81.4976 29.9765L80.2319 29.1247C79.8103 29.7493 79.2333 30.1606 78.4032 30.1606C77.5739 30.1606 76.983 29.7774 76.6033 29.0261L81.5674 26.9534L81.3989 26.528ZM41.8501 25.2939V26.883H45.6184C45.5058 27.777 45.2107 28.4297 44.7612 28.8834C44.2121 29.4374 43.3541 30.0479 41.8501 30.0479C39.5291 30.0479 37.7152 28.1602 37.7152 25.8189C37.7152 23.4767 39.5291 21.5899 41.8501 21.5899C43.1018 21.5899 44.0157 22.0867 44.6905 22.7254L45.8017 21.604C44.8589 20.6959 43.6081 20 41.8501 20C38.6719 20 36 22.6117 36 25.8189C36 29.0261 38.6719 31.6369 41.8501 31.6369C43.5653 31.6369 44.8589 31.0688 45.8715 30.0047C46.9129 28.9547 47.2358 27.4793 47.2358 26.2866C47.2358 25.9176 47.2079 25.5775 47.1512 25.2939H41.8501ZM51.5208 30.1606C50.3957 30.1606 49.425 29.2243 49.425 27.8907C49.425 26.5421 50.3957 25.6198 51.5208 25.6198C52.6451 25.6198 53.6158 26.5421 53.6158 27.8907C53.6158 29.2243 52.6451 30.1606 51.5208 30.1606ZM51.5208 24.1444C49.4669 24.1444 47.7936 25.7194 47.7936 27.8907C47.7936 30.0479 49.4669 31.6369 51.5208 31.6369C53.5739 31.6369 55.2472 30.0479 55.2472 27.8907C55.2472 25.7194 53.5739 24.1444 51.5208 24.1444ZM59.65 30.1606C58.5249 30.1606 57.5542 29.2243 57.5542 27.8907C57.5542 26.5421 58.5249 25.6198 59.65 25.6198C60.7752 25.6198 61.745 26.5421 61.745 27.8907C61.745 29.2243 60.7752 30.1606 59.65 30.1606ZM59.65 24.1444C57.597 24.1444 55.9237 25.7194 55.9237 27.8907C55.9237 30.0479 57.597 31.6369 59.65 31.6369C61.7031 31.6369 63.3764 30.0479 63.3764 27.8907C63.3764 25.7194 61.7031 24.1444 59.65 24.1444Z" fill="white"/>
</g>
<defs>
<clipPath id="clip0_29_165">
<rect width="120" height="40" fill="white"/>
</clipPath>
</defs>
</svg>
