<svg width="130" height="130" viewBox="0 0 130 130" fill="none" xmlns="http://www.w3.org/2000/svg">
<rect x="0.5" y="0.5" width="129" height="129" rx="64.5" stroke="#8D7547"/>
<path fill-rule="evenodd" clip-rule="evenodd" d="M55.7749 40.9412L36.853 46.0112C36.7538 46.0378 36.7102 46.1257 36.743 46.2221C37.3799 48.0859 38.0407 48.8903 38.7594 49.1368C39.3863 49.3518 40.2222 49.1912 41.1683 48.9479C41.4166 48.3457 41.7227 47.7843 42.1011 47.2537C42.4504 46.7629 43.1313 46.6481 43.6221 46.9973C44.1129 47.3465 44.2277 48.0275 43.8785 48.5182C43.3274 49.2909 42.9677 50.1904 42.796 51.122L40.9744 60.9985C40.9568 61.0942 41.0204 61.1829 41.1182 61.1923C41.6588 61.244 42.2151 61.2615 42.5988 61.1246C42.7804 61.06 42.921 60.9203 42.9719 60.6514L43.6316 52.97C43.7804 51.237 44.5726 49.7675 45.9388 48.691L55.7749 40.9412ZM57.2347 76.6534C57.2347 76.0493 57.7244 75.5596 58.3285 75.5596C58.9326 75.5596 59.4222 76.0493 59.4222 76.6534V80.2035C59.4222 80.8076 58.9326 81.2973 58.3285 81.2973C57.7244 81.2973 57.2347 80.8076 57.2347 80.2035V76.6534ZM47.6951 77.6759C47.393 77.1545 47.571 76.4868 48.0924 76.1848C48.6138 75.8828 49.2815 76.0607 49.5835 76.5821L51.3585 79.6567C51.6605 80.1781 51.4826 80.8457 50.9611 81.1478C50.4397 81.4498 49.7721 81.2718 49.4701 80.7504L47.6951 77.6759ZM67.0736 76.5864C67.3733 76.0649 68.039 75.8851 68.5605 76.1848C69.0819 76.4845 69.2618 77.1501 68.9621 77.6717L67.1871 80.7462C66.8874 81.2676 66.2218 81.4474 65.7002 81.1478C65.1788 80.8481 64.999 80.1824 65.2986 79.6609L67.0736 76.5864ZM61.0054 87.7345L58.3285 84.8329L55.6516 87.7345H61.0054ZM53.5007 86.8464L52.393 84.2337H55.9108L53.5007 86.8464ZM60.7463 84.2339H64.2641L63.1565 86.8465L60.7463 84.2339ZM47.9047 87.7345H51.5104L50.3938 85.101L47.9047 87.7345ZM65.1466 87.7345H68.7524L66.2632 85.1009L65.1466 87.7345ZM68.996 89.922H64.2897L61.0816 99.7046L68.996 89.922ZM61.9919 89.922L58.3285 101.093L54.6652 89.922H61.9919ZM52.3674 89.922H47.6611L55.5755 99.7046L52.3674 89.922ZM82.5258 29.9145L85.9821 28.9884C87.2488 28.649 88.5586 29.4053 88.898 30.6718L93.1865 46.6767C93.5258 47.9432 92.7696 49.2532 91.5029 49.5926L88.0466 50.5187C86.7799 50.8581 85.4701 50.1018 85.1307 48.8353L80.8424 32.8304C80.503 31.5639 81.2593 30.2539 82.5258 29.9145ZM51.8076 49.2206L48.3494 55.2103C47.5177 56.649 47.3074 58.2393 47.7374 59.8443L49.0727 64.8281C48.9111 65.2345 48.6413 65.5648 48.2954 65.8196C47.7915 66.191 47.1213 66.4204 46.3699 66.5092C45.4618 66.6167 44.7166 65.8901 44.7947 64.9795L45.8107 53.1492C45.9079 52.0178 46.3971 51.1109 47.289 50.4082L60.619 39.9054C60.968 39.6304 61.3149 39.4565 61.7441 39.3415L79.0776 34.697L82.1683 46.2318L81.6774 46.3523C80.2732 46.6968 79.2047 47.729 78.9172 49.1603L77.1238 58.0885C76.804 59.6803 75.891 60.8999 74.453 61.6537L64.1543 67.0539C63.8676 67.1831 63.2958 67.5837 62.9891 67.3429C62.6766 67.0974 62.438 66.4787 62.2286 65.697C61.7118 63.7678 63.4396 62.5478 64.898 61.7056L68.3027 59.7139C69.7172 58.8864 70.5049 57.3964 70.3841 55.7609L70.2371 53.7721C70.0719 51.5343 67.9193 49.9662 65.7161 50.5565L60.2447 52.0226C58.9843 52.3603 57.9816 53.127 57.3196 54.2507L55.2377 57.7848C54.7363 58.636 54.6049 59.5848 54.8607 60.5395L56.7094 67.439C57.0502 68.7109 57.0186 69.5789 56.694 70.1835C56.3729 70.7815 55.7105 71.2165 54.8038 71.5928C54.0024 71.9253 53.1193 71.4906 52.8947 70.6521L49.8477 59.2803C49.5644 58.2229 49.689 57.2518 50.2376 56.3039L53.6957 50.3142C53.9977 49.7928 53.8197 49.1251 53.2983 48.8231C52.7772 48.5212 52.1096 48.699 51.8076 49.2206Z" fill="#CAAC8F"/>
</svg>
