<svg width="130" height="130" viewBox="0 0 130 130" fill="none" xmlns="http://www.w3.org/2000/svg">
<rect x="0.5" y="0.5" width="129" height="129" rx="64.5" stroke="#8D7547"/>
<g clip-path="url(#clip0_1_460)">
<path fill-rule="evenodd" clip-rule="evenodd" d="M81.8695 80.0189C81.8689 80.5095 81.6737 80.9798 81.3267 81.3267C80.9798 81.6736 80.5094 81.8687 80.0187 81.8691H49.9815C49.4908 81.8689 49.0202 81.6739 48.6732 81.327C48.3262 80.9801 48.1311 80.5096 48.1307 80.0189V49.981C48.1311 49.4903 48.3262 49.0199 48.6733 48.673C49.0203 48.3261 49.4908 48.1311 49.9815 48.1309H80.0187C80.5094 48.1313 80.9797 48.3264 81.3267 48.6732C81.6737 49.0201 81.8689 49.4904 81.8695 49.981V80.0189ZM93.5957 52.9822C93.9687 52.9822 94.3264 52.834 94.5901 52.5703C94.8538 52.3066 95.002 51.9489 95.002 51.5759C95.002 51.203 94.8538 50.8453 94.5901 50.5816C94.3264 50.3178 93.9687 50.1697 93.5957 50.1697H84.6815V49.9811C84.6801 48.7449 84.1884 47.5597 83.3143 46.6856C82.4402 45.8115 81.255 45.3198 80.0187 45.3184H79.8303V36.4062C79.8303 36.0333 79.6822 35.6756 79.4184 35.4119C79.1547 35.1482 78.797 35 78.4241 35C78.0511 35 77.6934 35.1482 77.4297 35.4119C77.166 35.6756 77.0178 36.0333 77.0178 36.4062V45.3184H66.4062V36.4062C66.4062 36.0333 66.2581 35.6756 65.9944 35.4119C65.7306 35.1482 65.373 35 65 35C64.627 35 64.2694 35.1482 64.0056 35.4119C63.7419 35.6756 63.5938 36.0333 63.5938 36.4062V45.3184H52.9824V36.4062C52.9824 36.0333 52.8343 35.6756 52.5705 35.4119C52.3068 35.1482 51.9491 35 51.5762 35C51.2032 35 50.8455 35.1482 50.5818 35.4119C50.3181 35.6756 50.1699 36.0333 50.1699 36.4062V45.3184H49.9815C48.7452 45.3196 47.5599 45.8113 46.6856 46.6854C45.8114 47.5595 45.3196 48.7447 45.3181 49.981V50.1696H36.4062C36.0333 50.1696 35.6756 50.3177 35.4119 50.5815C35.1482 50.8452 35 51.2029 35 51.5758C35 51.9488 35.1482 52.3065 35.4119 52.5702C35.6756 52.8339 36.0333 52.9821 36.4062 52.9821H45.3181V63.5938H36.4062C36.0333 63.5938 35.6756 63.7419 35.4119 64.0056C35.1482 64.2694 35 64.627 35 65C35 65.373 35.1482 65.7306 35.4119 65.9944C35.6756 66.2581 36.0333 66.4062 36.4062 66.4062H45.3181V77.0175H36.4062C36.0333 77.0175 35.6756 77.1656 35.4119 77.4293C35.1482 77.6931 35 78.0508 35 78.4237C35 78.7967 35.1482 79.1544 35.4119 79.4181C35.6756 79.6818 36.0333 79.83 36.4062 79.83H45.3181V80.0184C45.3196 81.2547 45.8113 82.44 46.6856 83.3141C47.5599 84.1883 48.7452 84.6799 49.9815 84.6812H50.1699V93.5938C50.1699 93.9667 50.3181 94.3244 50.5818 94.5881C50.8455 94.8518 51.2032 95 51.5762 95C51.9491 95 52.3068 94.8518 52.5705 94.5881C52.8343 94.3244 52.9824 93.9667 52.9824 93.5938V84.6816H63.5938V93.5938C63.5938 93.9667 63.7419 94.3244 64.0056 94.5881C64.2694 94.8518 64.627 95 65 95C65.373 95 65.7306 94.8518 65.9944 94.5881C66.2581 94.3244 66.4062 93.9667 66.4062 93.5938V84.6816H77.0176V93.5938C77.0176 93.9667 77.1657 94.3244 77.4295 94.5881C77.6932 94.8518 78.0509 95 78.4238 95C78.7968 95 79.1545 94.8518 79.4182 94.5881C79.6819 94.3244 79.8301 93.9667 79.8301 93.5938V84.6816H80.0185C81.2547 84.6802 82.4399 84.1885 83.3141 83.3144C84.1882 82.4403 84.6799 81.2551 84.6813 80.0189V79.8304H93.5955C93.9685 79.8304 94.3262 79.6823 94.5899 79.4185C94.8536 79.1548 95.0018 78.7971 95.0018 78.4242C95.0018 78.0512 94.8536 77.6935 94.5899 77.4298C94.3262 77.1661 93.9685 77.0179 93.5955 77.0179H84.6815V66.4062H93.5957C93.9687 66.4062 94.3264 66.2581 94.5901 65.9944C94.8538 65.7306 95.002 65.373 95.002 65C95.002 64.627 94.8538 64.2694 94.5901 64.0056C94.3264 63.7419 93.9687 63.5938 93.5957 63.5938H84.6815V52.9822H93.5957ZM75.7227 52.8711H54.2773C53.9044 52.8711 53.5467 53.0193 53.283 53.283C53.0193 53.5467 52.8711 53.9044 52.8711 54.2773V75.7232C52.8711 76.0962 53.0193 76.4539 53.283 76.7176C53.5467 76.9813 53.9044 77.1295 54.2773 77.1295H75.7227C76.0956 77.1295 76.4533 76.9813 76.717 76.7176C76.9808 76.4539 77.1289 76.0962 77.1289 75.7232V54.2779C77.1291 54.0932 77.0928 53.9102 77.0222 53.7395C76.9516 53.5688 76.848 53.4136 76.7174 53.283C76.5868 53.1523 76.4317 53.0487 76.2611 52.978C76.0904 52.9073 75.9074 52.871 75.7227 52.8711Z" fill="#CAAC8F"/>
</g>
<defs>
<clipPath id="clip0_1_460">
<rect width="60" height="60" fill="white" transform="translate(35 35)"/>
</clipPath>
</defs>
</svg>
