<svg width="130" height="130" viewBox="0 0 130 130" fill="none" xmlns="http://www.w3.org/2000/svg">
<rect x="0.5" y="0.5" width="129" height="129" rx="64.5" stroke="#8D7547"/>
<path d="M98.8324 64.2725H96.1V65.7278H98.8324C99.2342 65.7278 99.56 65.402 99.56 65.0001C99.56 64.5983 99.2342 64.2725 98.8324 64.2725Z" fill="#CAAC8F"/>
<path d="M69.3812 39.0095V50.9377C72.8691 51.1136 76.1231 52.5559 78.6107 55.0435C81.0978 57.5306 82.5401 60.7846 82.716 64.2725H94.6446H96.0999V61.4785C96.0999 61.0766 95.7737 60.7508 95.3723 60.7508H90.6792C90.1091 57.7889 88.9265 54.9355 87.2313 52.4317L90.551 49.1116C90.6873 48.9752 90.7643 48.7903 90.7643 48.5972C90.7643 48.4046 90.6873 48.2192 90.551 48.0829L85.5708 43.1032C85.2864 42.8188 84.8261 42.8188 84.5417 43.1032L81.222 46.4228C78.7178 44.7277 75.8648 43.5446 72.9029 42.9749V38.2823C72.9029 37.8805 72.5766 37.5547 72.1752 37.5547H69.3807V38.2823V39.0095H69.3812Z" fill="#CAAC8F"/>
<path d="M82.7161 65.728C82.5401 69.2159 81.0979 72.4699 78.6107 74.957C76.1231 77.4446 72.8692 78.8869 69.3812 79.0628V90.991V91.7186V92.4463H72.1757C72.5771 92.4463 72.9034 92.1205 72.9034 91.7186V87.0256C75.8653 86.4559 78.7183 85.2728 81.2225 83.5777L84.5422 86.8978C84.6785 87.0341 84.8635 87.1106 85.057 87.1106C85.2496 87.1106 85.435 87.0341 85.5713 86.8978L90.5515 81.9172C90.8359 81.6332 90.8359 81.1724 90.5515 80.8885L87.2318 77.5684C88.927 75.0646 90.1096 72.2111 90.6797 69.2492H95.3728C95.7742 69.2492 96.1004 68.9234 96.1004 68.5216V65.7275H94.6451H82.7161V65.728Z" fill="#CAAC8F"/>
<path d="M69.3812 52.3955V57.292C73.0708 57.6371 76.0169 60.5828 76.3621 64.2728H81.2585C80.8945 57.8887 75.7654 52.76 69.3812 52.3955Z" fill="#CAAC8F"/>
<path d="M69.3812 72.7084V77.6048C75.7654 77.2408 80.8945 72.1117 81.2585 65.7275H76.3621C76.0169 69.4175 73.0712 72.3632 69.3812 72.7084Z" fill="#CAAC8F"/>
<path d="M69.3812 58.7549V64.2728H74.8991C74.5648 61.3865 72.268 59.0892 69.3812 58.7549Z" fill="#CAAC8F"/>
<path d="M74.8991 65.728H69.3812V71.2459C72.268 70.9116 74.5648 68.6143 74.8991 65.728Z" fill="#CAAC8F"/>
<path d="M67.9263 92.4458V95.1786C67.9263 95.58 68.2526 95.9063 68.654 95.9063C69.0558 95.9063 69.3816 95.58 69.3816 95.1786V92.4458H68.654H67.9263Z" fill="#CAAC8F"/>
<path d="M69.3812 37.5547V34.8219C69.3812 34.4205 69.0554 34.0942 68.6536 34.0942C68.2522 34.0942 67.9259 34.4205 67.9259 34.8219V37.5547H68.6536H69.3812Z" fill="#CAAC8F"/>
<path d="M67.9264 79.0627C64.4384 78.8867 61.1849 77.4445 58.6973 74.9569C56.2102 72.4697 54.7679 69.2158 54.592 65.7278H42.6634H41.2081V68.5219C41.2081 68.9237 41.5343 69.2495 41.9357 69.2495H46.6288C47.1989 72.2114 48.3815 75.0649 50.0767 77.5687L46.757 80.8888C46.4726 81.1727 46.4726 81.6335 46.757 81.9175L51.7372 86.8981C51.8735 87.0344 52.0585 87.1109 52.2515 87.1109C52.4446 87.1109 52.63 87.0344 52.7663 86.8981L56.086 83.578C58.5902 85.2731 61.4432 86.4562 64.4051 87.0259V90.9913H36.0164V39.0095H64.4047V42.9749C61.4428 43.5446 58.5898 44.7277 56.0855 46.4228L52.7659 43.1032C52.4815 42.8188 52.0211 42.8188 51.7367 43.1032L46.757 48.0833C46.6207 48.2197 46.5437 48.4046 46.5437 48.5977C46.5437 48.7903 46.6207 48.9757 46.757 49.112L50.0767 52.4321C48.3815 54.9359 47.1989 57.7894 46.6288 60.7513H41.9357C41.5343 60.7513 41.2081 61.0771 41.2081 61.4789V64.273H42.6634H54.592C54.7679 60.785 56.2102 57.5311 58.6973 55.0439C61.1849 52.5563 64.4384 51.1141 67.9264 50.9381V39.0095V37.5547H65.1323H35.2888H31.1677C30.7658 37.5547 30.44 37.8805 30.44 38.2823C30.44 38.6842 30.7658 39.01 31.1677 39.01H34.5616V90.9908H31.1677C30.7658 90.9908 30.44 91.3166 30.44 91.7185C30.44 92.1203 30.7658 92.4461 31.1677 92.4461H35.2888H65.1323H67.9264V90.9908V79.0627Z" fill="#CAAC8F"/>
<path d="M60.9459 65.728H56.0495C56.4135 72.1122 61.5427 77.2408 67.9264 77.6053V72.7089C64.2364 72.3633 61.2911 69.4176 60.9459 65.728Z" fill="#CAAC8F"/>
<path d="M67.9263 71.2459V65.728H62.4089C62.7432 68.6143 65.04 70.9116 67.9263 71.2459Z" fill="#CAAC8F"/>
<path d="M62.4089 64.2728H67.9263V58.7549C65.04 59.0892 62.7432 61.3865 62.4089 64.2728Z" fill="#CAAC8F"/>
<path d="M56.0495 64.2728H60.9459C61.2911 60.5833 64.2364 57.6371 67.9264 57.292V52.3955C61.5427 52.76 56.4135 57.8887 56.0495 64.2728Z" fill="#CAAC8F"/>
<path d="M37.748 65.0001C37.748 65.402 38.0738 65.7278 38.4756 65.7278H41.208V64.2725H38.4756C38.0738 64.2725 37.748 64.5983 37.748 65.0001Z" fill="#CAAC8F"/>
</svg>
