<svg width="130" height="130" viewBox="0 0 130 130" fill="none" xmlns="http://www.w3.org/2000/svg">
<rect x="0.5" y="0.5" width="129" height="129" rx="64.5" stroke="#8D7547"/>
<path fill-rule="evenodd" clip-rule="evenodd" d="M65.8039 38.5585C71.8612 41.3243 78.2512 44.184 85.0709 43.7727L87.1229 43.6489V66.1041C87.1229 78.8237 77.8558 89.8242 65.3323 92.0074L65 92.0653L64.6675 92.0074C52.144 89.8242 42.8771 78.8237 42.8771 66.1041V43.6489L44.929 43.7727C51.7488 44.184 58.1386 41.3241 64.1961 38.5584L65 38.1914L65.8039 38.5585ZM63.1087 68.1254L57.4458 62.4625C56.4277 61.4443 54.7764 61.4443 53.7583 62.4625C52.7402 63.4808 52.7402 65.1318 53.7583 66.1501L61.2695 73.6613C62.2878 74.6796 63.9388 74.6796 64.9571 73.6613C69.4837 69.1347 73.9589 64.5571 78.4647 60.0098C79.4752 58.9899 79.473 57.3448 78.4541 56.3318C77.436 55.3193 75.7866 55.321 74.7754 56.3423L63.1087 68.1254ZM65 40.319C58.4815 43.2954 52.0042 46.1384 44.8124 45.7046V66.1041C44.8124 77.92 53.4385 88.0851 65 90.1007C76.5614 88.0852 85.1875 77.9202 85.1875 66.1041V45.7046C77.9957 46.1383 71.5184 43.2954 65 40.319ZM42.8253 40.5999C42.0947 40.4671 41.4126 40.647 40.8426 41.1228C40.2727 41.5987 39.9738 42.2376 39.9738 42.98V66.104C39.9738 80.7471 50.8988 92.9601 65 95C79.1011 92.9602 90.0262 80.7472 90.0262 66.1041V42.9801C90.0262 42.2377 89.7272 41.5987 89.1573 41.1229C88.5873 40.6471 87.9051 40.4674 87.1745 40.6C79.7226 41.9529 73.2798 38.7638 65 35C56.7202 38.7638 50.2773 41.9529 42.8253 40.5999Z" fill="#CAAC8F"/>
</svg>
