<svg width="130" height="130" viewBox="0 0 130 130" fill="none" xmlns="http://www.w3.org/2000/svg">
<g clip-path="url(#clip0_155_1783)">
<path d="M38.8331 55.0024L44.0508 65.8549L44.2813 65.7201L47.0728 60.0113V61.8896C48.0903 61.8026 47.4424 59.8634 47.4032 59.1504L49.3686 55.0024H53.3341V74.9335H50.0469C49.7599 74.5726 49.7425 74.0074 49.6556 73.5508C49.6295 73.4117 49.4729 73.2291 49.4729 73.2117V64.2897L44.0987 74.8291L41.3333 69.3464L41.5376 69.2942L41.7507 68.042L40.9115 68.4115L38.7244 64.2853V74.9291H34.8633V71.5899C35.4242 72.1204 35.9634 71.9986 36.4808 71.4856C37.7113 70.2681 35.9155 70.6073 35.2416 71.0812C35.0285 71.2334 35.0416 71.416 34.8633 71.4856V57.9721L35.8025 56.8764C35.2198 56.659 35.2372 57.1112 34.8633 57.3981V54.998H38.8288L38.8331 55.0024ZM40.0549 62.1113C39.6158 62.3548 39.5505 62.694 39.9332 63.0374L40.4897 62.4461L40.355 62.1983L40.0549 62.1113Z" fill="#A38274"/>
<path d="M129.704 59.6201C129.778 59.7201 129.808 59.8462 129.821 59.9679C129.887 60.4288 129.921 61.2375 129.939 61.7332C130.33 71.19 128.804 80.5642 125.343 89.3385C124.882 89.2124 124.386 88.9819 123.908 89.208C123.638 89.3341 123.499 90.6385 123.59 90.9385C123.704 91.3037 124.364 91.2298 124.286 91.6603C123.625 92.9212 123.064 94.543 122.325 95.7343C117.912 102.822 114.207 108.37 107.711 114.022C89.8404 129.583 64.6779 134.231 42.3416 125.979C42.0981 125.809 42.4894 124.214 42.2068 123.979C41.4763 123.366 40.6502 124.3 40.5067 124.196L40.2458 123.57C39.9719 123.857 39.6936 124.77 39.2283 124.701C39.1066 124.683 38.7283 124.487 38.5587 124.422C37.2108 123.883 35.8412 123.157 34.5585 122.474C31.5278 120.87 28.645 118.992 25.9014 116.939C26.0709 116.679 26.571 116.696 26.7362 116.526C26.9188 116.344 26.7753 115.613 27.1101 115.539C27.3362 115.487 30.4625 117.818 30.9582 118.144C31.3496 118.4 32.9671 119.274 33.0975 119.553L32.8888 119.813L33.3062 119.709V120.231C33.5627 120.339 33.4888 120.044 33.5801 120.022C33.9671 119.922 33.9323 120.226 33.9976 120.231C35.002 120.309 36.9847 121.587 38.0717 122.096C45.6983 125.674 53.838 127.557 62.2647 128.061C62.7125 128.088 63.3213 127.983 63.7256 128.061C63.9909 128.114 64.8996 129.044 64.717 128.061C66.7171 128.088 68.7216 128.027 70.7174 127.853C72.374 127.705 74.2872 127.222 75.8612 127.153C76.1743 127.14 76.5308 127.296 76.87 127.235L76.983 126.909C77.6396 126.783 77.4787 127.053 77.7527 127.288C78.1962 127.675 79.0745 127.622 79.5354 127.279L78.7005 126.601C80.5094 126.174 82.3269 125.722 84.1009 125.166C85.0444 124.87 88.0751 123.535 88.6925 123.483C88.9186 123.466 88.9969 123.644 89.1665 123.648C89.5143 123.666 90.1013 123.361 90.4839 123.353L90.3883 122.735C90.7448 122.6 91.1275 122.466 91.471 122.3C95.0234 120.583 98.1453 118.844 101.38 116.557C107.733 112.061 113.264 106.343 117.573 99.8692L118.151 99.8779C118.199 99.6779 118.055 99.4736 118.06 99.2997C118.064 99.091 118.955 97.6387 119.147 97.3779C119.734 96.5735 120.212 95.6213 120.712 94.6647C125.447 85.5862 127.917 75.8945 128.173 65.6029L127.847 59.7636C128.23 59.5766 129.4 59.3114 129.708 59.6201H129.704ZM106.168 114.561C107.32 115.035 106.929 113.761 106.037 113.752L106.168 114.561ZM67.7389 128.257C67.3346 128.24 66.9911 128.053 66.5997 128.266C66.4997 128.818 66.9345 129.109 67.4215 129.196L67.7346 128.257H67.7389Z" fill="#A38274"/>
<path d="M88.9234 72.2712C88.9234 72.2234 88.8321 72.0973 88.8147 71.9625C88.7886 71.7103 88.9756 71.0885 88.6103 71.1755L88.2886 75.08C88.2494 75.1496 88.1973 75.2017 88.1233 75.2278C87.8842 75.3104 86.2058 75.2757 85.8406 75.2496C82.3012 74.9887 79.5662 72.0668 79.0184 68.6798L80.0576 68.4059L79.901 67.9406C79.5575 68.1754 79.401 68.5102 78.9097 68.4624C78.8097 68.045 79.4662 68.3015 79.5358 68.045L78.8053 68.1493C78.2009 64.5449 78.4531 60.2708 80.9446 57.4011C82.7273 55.3402 85.1318 54.575 87.832 54.7967C88.2059 54.8271 89.493 55.075 89.7669 55.2619C89.9843 55.4141 89.6669 55.4837 89.6626 55.6272C90.4931 55.4359 90.8974 55.7402 91.5323 56.2098C95.0021 58.7751 95.6586 64.084 94.8325 68.0493C94.7673 68.358 94.6107 69.145 94.489 69.3754C94.3498 69.6363 93.8194 69.6755 94.3585 69.8668L92.9019 72.8973L93.9498 74.7626L91.2627 76.6931C90.9496 76.7235 90.1843 75.1191 89.8713 74.8756L88.9321 75.0365C88.8843 74.1321 88.993 73.1712 88.9321 72.2712H88.9234ZM90.3844 69.1928C92.0105 65.4318 91.8236 58.0968 86.0667 58.7707C83.0882 59.1186 82.5534 62.5404 82.4447 64.9666L82.6578 67.3102C82.149 67.3884 81.549 67.4406 81.0924 67.6797C80.9402 67.758 80.8402 67.6797 80.8881 67.9406L82.8665 67.7363C83.1273 69.6059 84.5579 71.1972 86.4841 71.3712C86.7667 71.3973 87.1581 71.4755 87.3581 71.2277C87.3668 71.0668 86.4711 70.045 86.3667 69.8146C86.3145 69.6972 86.2797 69.6189 86.3667 69.5059L88.9973 67.5363L90.0974 69.0189L90.3931 69.1928H90.3844ZM92.9932 59.6969C92.4628 59.9534 92.1671 60.3317 92.628 60.8447L92.9932 59.6969ZM80.6794 60.6404L79.3227 60.9491C79.8663 61.0752 80.475 61.2839 80.6794 60.6404Z" fill="#A38274"/>
<path d="M59.3909 69.9232C59.3475 70.5102 59.6127 71.0406 59.7692 71.5798C59.8214 71.7581 59.8736 71.9189 59.6518 71.6972C57.8735 68.7014 57.5821 64.5187 58.417 61.1794C60.0345 54.6923 67.948 52.2617 72.2701 57.5184C73.1658 58.6054 73.5484 59.4229 73.3919 60.8838L74.1876 61.4447C75.6964 67.7449 73.3136 75.8408 65.4957 75.2495C63.8391 75.1234 61.7433 74.2842 60.6389 73.0103C59.9779 72.245 60.0736 71.1189 59.6997 70.1928C59.6344 70.0319 59.617 69.8884 59.3909 69.9319V69.9232ZM63.3608 59.9055C63.2782 59.5663 63.239 59.062 63.0999 58.7576C62.9607 58.4533 62.7651 59.075 62.752 59.1489C62.6955 59.5055 62.9521 60.0837 62.9216 60.4533C62.8781 60.949 62.1824 61.9142 62.0607 62.4621C61.9868 62.7925 61.7607 65.9187 61.7998 66.097C61.8172 66.1753 61.965 66.1579 61.9781 66.2187C62.1781 67.0101 62.2477 67.8231 62.552 68.5927C63.2651 70.3884 64.7304 71.4189 66.7001 71.2798L66.1784 71.5928C66.8828 71.6841 67.5393 71.3711 68.2133 71.2798C68.5176 71.2406 68.9872 71.3493 69.2351 71.2798C69.3177 71.258 69.3699 71.0406 69.5438 70.9406C69.8395 70.7624 70.3047 70.9102 70.4569 70.5493C69.7003 70.245 68.9872 70.6928 68.2655 70.858C68.8872 70.3189 69.4525 69.7884 69.8482 69.0493C71.0309 66.8492 71.0613 62.5186 69.709 60.3881C68.3568 58.2576 65.0826 58.1141 63.3651 59.9011L63.3608 59.9055ZM60.9563 63.1447C60.5041 63.1839 60.2084 62.7708 59.7649 63.036L59.704 63.2491H60.0171L59.9127 63.5621L60.7476 63.3534L60.8519 63.7708L60.9563 63.1447ZM61.5824 67.5231C61.6911 67.371 61.0215 66.8144 60.891 66.7014C60.4475 66.8883 60.0606 67.1101 60.3388 67.6275L61.5867 67.5231H61.5824Z" fill="#A38274"/>
<path d="M79.4275 1.57875C79.3275 1.8005 78.8622 1.64397 78.6448 1.6831C78.41 1.72658 78.2405 2.0092 78.297 2.2353C78.397 2.63096 79.4275 2.89619 79.771 2.80923C79.9797 2.7527 80.8537 2.17008 80.8406 1.89615C81.9624 2.30921 83.1582 2.55705 84.3148 2.90923C88.7977 4.28319 93.0762 6.21369 97.1722 8.47464L97.0722 8.77464C97.4852 9.00074 97.7722 8.82247 98.1157 9.09205L97.8026 9.2964H98.4288V9.71381C98.8158 9.89642 98.394 9.20944 98.6853 9.40075C98.8158 9.48771 98.8462 9.67033 98.8462 9.81816C99.2723 9.6225 99.2636 9.8399 99.5375 10.0138C99.6462 10.0834 99.8723 10.1182 99.8854 10.1312C100.172 10.4051 99.4636 10.1486 99.6767 10.4443C100.072 10.366 100.264 10.279 100.581 10.5921C100.625 10.6356 101.238 11.5834 101.246 11.6443C101.29 11.9617 101.081 11.7095 100.981 11.7008L100.929 12.0139L100.725 11.8052L100.62 12.3269L101.142 12.2226L101.038 12.7443C100.829 12.6226 100.803 12.5791 100.829 12.8487L101.142 12.7748C101.246 12.0617 101.699 12.44 102.133 12.44C102.464 12.44 102.69 12.2226 102.864 12.2269C103.26 12.2356 107.621 15.8966 108.238 16.4488C120.235 27.1796 128.257 42.4019 129.631 58.5546L128.757 58.2459C128.553 58.3111 127.726 61.0155 127.652 57.2024C127.918 57.211 128.113 57.1632 128.27 56.9371C128.092 56.6893 127.8 56.8023 127.548 56.7763C126.726 50.1369 124.765 43.841 121.93 37.8191C120.282 34.319 118.204 30.8493 115.834 27.6361C111.495 21.7533 106.216 16.7532 100.168 12.6269C99.9071 12.4487 99.268 12.0965 99.1027 11.9139C98.894 11.6878 98.9375 11.3139 98.5375 11.2747L98.6375 10.9704C97.6418 11.0965 97.9896 10.5356 97.8157 10.3008C97.7461 10.2051 97.5809 10.2703 97.52 10.2095C97.4591 10.1486 97.5418 9.86599 97.2852 9.92251L97.5983 9.71815L97.1809 9.6138L97.4939 9.50945L97.0765 9.4051L97.0635 9.80946L96.6721 9.9399L96.6069 10.3443L96.2504 10.1269L96.346 9.82251C95.546 10.1399 94.9068 9.03118 94.0502 8.9877L94.3633 8.78334L93.9633 8.70508L93.898 8.88769C93.3893 8.78769 93.4371 8.42246 93.111 8.20941L93.4241 7.84418L92.7023 7.74418C92.524 7.87461 92.824 8.34854 92.5414 8.25724L87.2715 5.90933L87.4802 5.59628C87.2932 5.03539 86.8628 5.4528 86.5888 5.72237C84.0278 4.74842 81.3798 4.01362 78.7101 3.40055C78.2492 3.2962 76.349 3.02663 76.1534 2.82662C76.0273 2.69618 76.0316 2.39182 75.8229 2.32226L74.4315 2.30486L75.0533 1.73093C74.4663 0.870033 74.1576 1.8005 73.6271 1.86572C73.3575 1.9005 72.7401 1.97007 72.4966 1.98311C71.9618 2.01355 71.1487 1.53527 70.4704 1.88746L70.6269 2.20051C69.9964 2.14399 69.2659 2.0179 68.6442 1.99181C62.9699 1.74398 57.4304 2.10921 51.8778 3.27446C49.9255 3.68317 47.9993 4.21362 46.0992 4.8006L46.1601 4.60059L45.1861 4.51363L45.06 4.59624L45.0122 4.91365H45.4296C45.46 4.93539 45.3774 5.04409 45.3252 5.07017C44.8817 5.31801 43.499 5.6528 42.899 5.8789C37.9117 7.76157 33.3896 10.1616 29.0111 13.1748C28.2632 13.6922 26.737 15.0618 26.0718 15.3618C25.9544 15.414 25.1326 15.4749 25.0891 15.4401L24.7891 14.4574C24.8195 14.2835 25.3152 14.2966 25.4891 14.0313C25.6239 13.8226 25.4587 13.6357 25.5108 13.4444C25.5761 13.2096 28.4763 11.2008 28.9241 10.9008C43.6512 1.0396 62.0524 -2.29964 79.4275 1.57875ZM55.739 1.67876C55.1302 1.5831 54.8693 1.78746 54.9041 2.40922C55.3302 2.37878 55.8477 2.19182 55.739 1.67876ZM34.6593 8.04853L33.9245 8.09201L33.8288 8.56594C33.9027 8.64855 34.6245 8.20506 34.6636 8.04419L34.6593 8.04853ZM99.5941 11.2573C99.4636 11.0356 99.7289 10.7051 99.6245 10.5486L99.3593 10.4443C99.5332 10.6573 99.3375 11.0704 99.381 11.2139C99.3984 11.2704 100.038 11.8921 100.19 11.9052L99.981 12.1661C100.203 12.3139 100.564 11.8574 100.503 11.5921L100.381 11.7747L100.085 11.8008V11.4878C100.003 11.6834 99.6288 11.3269 99.5897 11.2573H99.5941ZM107.29 17.1228C106.542 17.2184 106.973 18.188 107.499 17.6923L107.29 17.1228Z" fill="#A38274"/>
<path d="M1.4744 57.1933C2.0353 57.1802 2.08748 56.4715 2.46577 56.1498L1.89182 63.6631H1.4744V67.0545C1.4744 67.1023 1.93965 67.5675 1.99182 67.8936C2.30489 69.8633 2.29184 72.2938 2.52664 74.3504C2.55273 74.5678 2.731 74.82 2.72231 74.9895C2.70926 75.1678 2.47446 75.2765 2.53099 75.4852C2.56143 75.5982 2.80492 75.7852 2.89188 76.0765C3.16581 76.9809 3.27452 78.2375 3.50931 79.2158C4.4746 83.2333 5.77468 86.7117 7.19652 90.5553C7.33566 90.9292 7.72264 91.3988 7.63133 91.7683C7.62263 91.8031 7.24435 91.9727 7.42262 92.3597L7.52697 92.0466L7.68351 92.1292L7.73568 91.8379C7.80091 91.8466 8.03136 92.0988 8.0444 92.1249C8.58357 93.0814 9.04447 94.2554 9.59668 95.2467C10.4185 96.7294 11.3229 98.1729 12.2229 99.6121C11.9664 99.7599 11.162 99.4903 11.1794 99.9773L12.5143 99.9991C16.0101 105.269 20.3365 109.952 25.2238 113.952C25.4847 114.304 25.4108 115.769 25.2716 116.208C25.2368 116.321 25.3412 116.395 25.1151 116.36C21.2496 113.269 17.6537 109.812 14.5231 105.978C13.4143 104.621 12.3099 103.164 11.3446 101.747C11.0359 101.295 10.2054 100.369 10.5098 99.886C10.6359 99.6903 11.1055 99.5208 10.9707 99.3556C10.9533 99.3338 10.5141 99.0686 10.488 99.0599C10.1706 98.9903 9.94018 99.5512 9.52711 98.9686C9.18795 98.4903 7.3574 95.3685 7.25739 94.9685C7.21391 94.8032 7.25739 94.7119 7.30522 94.5597L7.10956 94.4467L7.42262 94.3945C7.14434 94.325 7.27478 94.1771 7.20956 93.9249L6.94867 94.1249C6.48777 93.8293 6.75301 93.3423 6.37472 92.9858L6.79214 93.2988L6.68779 92.6727L6.27472 92.8814C6.12253 92.1727 5.38335 91.6683 5.64424 90.8988L5.43988 91.0031L5.33552 90.2726L5.54423 90.1726C4.73548 90.0509 4.59634 89.1117 4.31806 88.4248C3.83977 87.2334 3.39626 85.9464 3.01363 84.7203C2.75274 83.8942 2.10053 82.0593 2.03965 81.3028C2.00487 80.8723 2.54403 80.4941 2.09618 80.1027C1.99182 80.0114 1.82225 80.0071 1.75268 79.9506C1.53527 79.7766 0.748261 75.1113 0.652603 74.4504C-0.273546 67.9589 -0.203976 61.3412 0.761306 54.8628L1.4744 51.3496V57.1933ZM2.41359 81.5071L2.87884 81.7202L3.03102 81.255C2.92232 80.8854 2.27445 81.3245 2.41359 81.5071ZM6.58778 92.4118C6.51821 91.9162 6.58778 91.1727 6.58778 90.6379C6.58778 90.5248 6.14862 90.3074 6.29646 90.7205C6.33559 90.8292 6.48343 90.9335 6.48343 90.9509V92.5684H6.69214C6.74431 92.5249 6.59213 92.4423 6.58778 92.4118Z" fill="#A38274"/>
<path d="M72.0094 25.4826L72.0224 25.8913C72.292 25.7043 72.3138 25.5565 72.6834 25.5826C73.7965 25.6565 76.2749 26.4348 77.4228 26.8C86.4104 29.6784 94.3674 36.0481 99.2982 44.0571C99.6852 44.6876 100.768 46.4007 100.955 47.0007C101.068 47.3703 100.777 47.6572 101.133 47.805L101.237 47.5963C103.064 51.4313 104.29 55.5401 104.864 59.7576C104.833 59.9228 104.181 59.9533 104.268 60.3229C104.69 60.4185 104.655 60.1924 104.894 60.0098L105.207 63.5056C105.355 68.9362 104.499 74.3755 102.572 79.4452C102.285 80.1974 101.772 81.6453 101.35 82.2627C101.264 82.3888 101.033 82.4323 100.972 82.5453C100.911 82.6584 101.111 82.7193 101.09 82.8627C101.068 82.9975 100.259 84.4367 100.111 84.7019C99.1634 86.4063 97.8807 88.3586 96.6502 89.8717C96.511 90.0412 96.2675 90.0673 96.1588 90.1978C96.0675 90.3065 95.7762 91.0369 95.6979 91.0934L95.2936 90.9978C95.3805 91.5543 95.0022 91.5326 94.637 91.7326C94.5674 91.7717 94.5674 91.9283 94.4892 91.9413C94.2109 91.9848 93.7891 91.6152 93.8282 92.0413L93.6195 91.8891C94.2022 91.4804 94.5544 90.4673 95.2892 90.476C95.2327 90.3195 95.1544 90.2499 95.2327 90.0673C95.4066 89.6586 96.4849 88.4977 96.8371 88.0064C97.2937 87.3672 97.9242 86.1889 98.3764 85.6846C98.5199 85.5237 98.9155 85.3759 98.9373 85.3498C98.9721 85.2976 98.8155 85.0585 98.8808 84.8411C98.9721 84.5324 99.5417 83.7497 99.7286 83.3845C100.533 81.8018 101.242 80.1931 101.868 78.5322C102.129 77.8365 102.464 76.2799 102.759 75.7712C102.985 75.3755 103.92 75.3755 103.694 74.8277L103.016 74.8799C103.325 73.5581 103.625 72.2276 103.82 70.8841C104.607 65.4578 104.272 60.1533 102.907 54.8531C102.82 54.5227 102.333 53.1791 102.442 53.0139C102.52 52.9009 102.803 52.9965 102.69 52.6704L102.338 52.2878L102.181 52.4965C98.4677 41.3614 89.4801 32.1654 78.4403 28.1827C68.7222 24.6782 58.1302 25.1347 48.7122 29.3479C47.9817 29.674 46.6599 30.5436 46.0077 30.7175C45.8207 30.7654 45.6989 30.7001 45.5163 30.6914L45.6207 31.0045C41.4421 33.2089 37.8941 36.4655 34.7678 39.9787C34.7591 39.6961 34.746 39.4222 34.8156 39.1395C35.133 37.8438 36.694 36.4568 37.6897 35.5438C46.8773 27.0826 59.6303 23.2608 72.0137 25.4869L72.0094 25.4826Z" fill="#A38274"/>
<path d="M20.7797 22.2361C20.8536 22.6274 20.8753 22.8622 21.0927 23.1188C12.4747 32.0452 6.6961 43.776 4.93511 56.1112C3.05673 69.2594 5.35253 82.2164 11.579 93.8863C12.1182 94.8994 12.7965 95.869 13.2748 96.8908L13.0617 97.0473L13.5313 97.1517C16.8577 102.521 21.071 107.335 25.9061 111.387C26.1409 111.722 25.8278 112.126 25.793 112.487C25.6365 112.53 25.6191 112.448 25.5321 112.383C24.6973 111.796 23.5407 110.656 22.7667 109.93C21.5362 108.778 20.0274 107.304 18.9578 106.017C18.8491 105.887 18.4752 105.395 18.436 105.282C18.4056 105.191 18.6752 104.748 18.5882 104.565C17.4055 104.539 16.9185 103.6 16.2576 102.769C15.6837 102.052 15.1532 101.287 14.6314 100.53L15.001 100.282L15.0445 99.8561C14.6488 100.021 14.3705 100.06 14.0575 99.7474C13.4835 99.1691 12.3704 97.1778 11.8965 96.3777C8.83972 91.2297 6.48304 85.4469 5.0786 79.612C4.72641 78.1423 4.20463 76.1249 4.09158 74.6509C3.94374 72.7465 4.12637 70.6377 3.97418 68.7116C3.89157 68.1551 3.59155 68.3594 3.48284 68.2159C3.42197 68.1377 3.32196 67.4159 3.37849 67.3202L3.87852 67.0289C3.72634 66.5941 3.9307 66.1898 3.86983 65.6898C3.80895 65.1897 3.41327 64.9158 3.3611 64.6332C3.33066 64.468 3.33501 63.3245 3.38284 63.2462C3.40893 63.2027 3.62633 63.1505 3.72634 63.0158C4.13071 62.4766 3.67416 59.3113 3.66546 58.4765C4.79163 47.6848 8.83538 37.3366 15.1662 28.5885L15.5663 28.6842C15.5532 28.4929 15.4228 28.3798 15.5097 28.1711C15.7271 27.6537 17.3881 25.7928 17.8621 25.2928C17.9229 25.2275 17.9577 25.1275 17.9664 25.0362L18.5882 25.2449C18.6273 25.0493 18.2969 25.2449 18.3795 24.984C18.4143 24.8797 18.5317 24.9623 18.5665 24.9188C18.5969 24.884 18.4795 24.7101 18.5012 24.5927C18.5491 24.3579 20.2274 22.5231 20.5144 22.3231C20.6014 22.2622 20.6188 22.1796 20.7753 22.2231L20.7797 22.2361Z" fill="#A38274"/>
<path d="M90.4105 9.59258L91.0106 9.71867L91.1671 9.19691L92.2106 10.0274L92.1584 9.71432C92.5585 9.59692 92.5846 10.0317 92.7498 10.1361C92.8802 10.2187 93.1063 10.1926 93.1846 10.2491C93.202 10.2622 93.0759 10.4883 93.2498 10.5491L93.4585 10.2404C93.6803 10.3013 93.7716 10.5752 93.9107 10.6535C94.1238 10.7752 94.4977 10.7926 94.7195 10.9665C95.5108 11.5883 96.3544 11.897 97.2371 12.4144C98.5502 13.1797 99.9372 14.1579 101.163 15.058C101.729 15.471 103.346 16.558 103.694 17.0189C103.959 17.3624 103.62 17.7581 103.633 18.1711C102.242 17.1059 100.872 16.0189 99.4328 15.0188C97.824 13.9058 96.05 12.8057 94.476 11.81C94.3716 11.7448 94.1542 11.7753 94.0325 11.6535C93.9107 11.5318 93.9455 11.3013 93.9325 11.2839C93.889 11.2405 93.6194 11.4231 93.4759 11.3839C93.3585 11.3492 93.3498 11.1535 93.2803 11.1057C93.1107 10.9926 92.5715 10.9796 92.3063 10.7665C92.1628 10.6491 92.2628 10.4622 92.1672 10.4013C91.7106 10.123 90.5975 10.123 90.0496 9.72301C89.8713 9.59258 89.9844 9.323 89.7974 9.19256C89.6974 9.12299 89.2061 8.98386 89.08 8.98386C88.8626 8.98386 88.993 9.24039 88.7887 9.19256C87.7973 8.96212 86.0276 8.01861 84.9145 7.63599C82.0099 6.63161 78.9967 5.86202 75.9617 5.34026L75.5747 4.55328C75.2095 4.54458 74.8312 4.42284 74.4747 4.4011C74.0616 4.37066 74.5573 5.00547 74.5268 5.02721C73.8877 4.99242 73.2441 4.89242 72.605 4.80981C69.8396 4.47067 66.8046 4.22718 63.9305 4.2924C63.1783 4.30979 62.3999 4.67502 61.7434 4.08804C61.4216 4.69676 60.3781 4.44458 59.7606 4.50545C48.4512 5.64897 37.5418 9.52301 28.5542 16.5058C28.3238 16.5406 28.4325 16.4624 28.3977 16.3537C28.3151 16.0928 28.289 15.8493 28.0977 15.6189C29.3456 14.671 30.6326 13.7579 31.9544 12.9188C32.7284 12.4318 33.5589 11.9405 34.3198 11.5057C39.3854 8.61863 44.7988 6.44899 50.4687 5.03155L50.6731 5.44461C50.86 5.3707 50.9687 5.02721 51.0688 4.95329C51.3949 4.7272 54.6386 4.20544 55.2821 4.10544C67.109 2.27929 79.375 3.82282 90.267 8.74037C90.7366 8.95777 90.1235 9.323 90.4018 9.60127L90.4105 9.59258Z" fill="#A38274"/>
<path d="M20.7061 17.5709C20.6713 17.6013 20.5626 17.8404 20.5713 17.8535C21.1627 18.0492 21.8975 18.0318 22.3454 18.5318L20.8322 19.8188L20.3626 19.4709C20.2844 19.5057 19.4234 20.771 19.3756 20.8884C19.1104 21.5449 18.9843 22.2189 18.2277 22.6667C18.0233 22.7841 17.8103 22.7363 17.7494 22.7667C17.7364 22.7754 17.8364 22.9189 17.7755 23.045C17.3755 23.9146 15.584 25.7233 14.8883 26.6364C12.7447 29.4495 10.7968 32.4453 9.17926 35.5932L7.30957 34.9715C11.0446 27.793 16.1667 21.3623 22.2323 16.0273H22.4367C23.615 17.2187 21.2453 17.0665 20.6931 17.5752L20.7061 17.5709Z" fill="#A38274"/>
<path d="M17.1271 69.4014L14.3617 68.4014L11.6485 69.397C11.3441 69.1796 11.5919 68.8405 11.6006 68.5188C11.6224 67.81 11.6137 67.0752 11.5485 66.3709L9.82227 64.0273L12.6355 63.1881L14.4139 60.7402L16.0314 63.1447L18.8011 63.9795C18.8142 64.0969 18.8011 64.1838 18.7489 64.2925C18.5881 64.6012 17.1314 66.1969 17.1314 66.3274V69.4057L17.1271 69.4014Z" fill="#A38274"/>
<path d="M117.338 63.2197L119.473 63.9197C119.212 64.198 119.582 64.8676 119.56 64.9154C119.395 65.298 118.425 66.1459 118.356 66.5372C118.29 66.9068 118.612 67.6633 118.429 67.9199C118.39 67.9764 118.199 67.8633 118.247 68.0981C118.673 68.246 118.373 68.9895 118.456 69.4025L116.577 68.7242C116.303 68.4981 116.629 68.0068 116.577 67.9416C115.86 67.5242 115.481 68.4416 114.934 68.5503C114.547 68.6286 114.012 68.3329 113.551 68.5677L113.964 68.9329L112.82 69.4025C112.677 69.2069 113.055 67.0372 112.899 66.4546C112.799 66.0763 111.007 64.1328 111.151 63.9763L113.894 63.2241L114.821 61.9066C115.403 61.9588 115.799 62.1327 116.212 61.5762L117.334 63.2154L117.338 63.2197ZM112.303 65.3328C112.816 65.0285 112.907 64.4632 112.199 64.3937L112.303 65.3328Z" fill="#A38274"/>
<path d="M29.132 46.7578C29.2712 46.7752 29.3147 46.9013 29.3364 47.023C29.6277 48.8492 28.6885 50.0405 28.0841 51.7145C25.3448 59.2974 25.0448 67.715 27.1536 75.5022C27.4971 76.7632 28.5059 78.9024 28.6711 79.9415C28.7059 80.172 28.5885 80.3589 28.6233 80.4981C28.6581 80.6372 28.8885 80.7155 28.9233 80.9416C28.9668 81.2285 28.7668 81.6677 28.4537 81.7198C23.2534 70.7847 23.7534 57.5364 29.132 46.7622V46.7578Z" fill="#A38274"/>
<path d="M94.2459 92.4679C94.1068 92.7201 93.8546 92.8766 93.6763 93.0984C93.498 93.3201 93.6067 93.6071 93.3241 93.4245C92.9719 93.8723 91.5501 95.4767 91.1153 95.655C90.937 95.7289 90.7978 95.5245 90.537 95.6941C90.2761 95.8637 90.2978 96.2289 90.0804 96.4941C89.2282 97.5246 85.441 99.7464 84.1278 100.455C82.8147 101.164 80.1406 102.564 78.8014 102.864C78.5449 102.92 78.4753 102.699 78.4362 102.699C78.384 102.699 78.2579 103.003 78.1057 103.094C77.71 103.333 76.3273 103.668 75.8012 103.816C71.6748 104.968 66.4223 105.594 62.1612 105.199C61.3002 105.121 61.2394 105.007 61.0654 104.16C65.3266 104.447 69.5008 104.281 73.675 103.355C79.1362 102.146 84.3844 99.6464 88.8151 96.268C89.376 95.8419 91.7327 93.6767 92.0545 93.5723C92.1197 93.5506 92.2066 93.594 92.2675 93.6158L92.4197 93.081C92.498 93.0158 93.1241 93.0592 93.3372 92.981C93.5067 92.9201 93.8328 92.294 94.2546 92.4679H94.2459Z" fill="#A38274"/>
<path d="M8.88318 35.9065C8.90057 36.0195 8.86579 36.1152 8.83535 36.2239C8.44402 37.5022 7.21785 39.5196 6.6439 40.9197C5.28294 44.2285 4.15678 47.7329 3.45673 51.2461C3.20889 51.1635 3.27846 50.8635 3.14802 50.6678C3.05236 50.5287 2.86539 50.4156 2.74364 50.2374C2.55232 49.9634 2.56972 49.3504 1.98707 49.6373L1.96533 50.8287L1.73488 51.033C1.55226 50.907 1.56965 50.7722 1.58269 50.5765C1.66096 49.5243 2.30883 48.259 2.41318 47.172L3.03931 47.3807C3.32629 46.3372 3.1828 45.1763 3.40021 44.1415C3.57848 43.3067 4.1046 42.1371 4.42201 41.3023C5.19598 39.2935 6.10039 37.3282 7.1048 35.4238L8.88318 35.9021V35.9065Z" fill="#A38274"/>
<path d="M27.6716 31.731L29.1326 35.279L25.4802 34.4442L27.9369 36.5268C28.1021 36.8312 27.3977 37.4182 27.202 37.6704L22.1582 33.3615L22.9235 32.3876L26.8411 33.2876C26.9455 33.1876 25.8237 31.2397 25.8193 30.918C25.8193 30.6919 26.2106 30.5745 26.1106 30.2614L25.5889 30.5745L25.2758 29.531C25.8106 29.731 25.6541 28.8092 26.0585 28.5918L31.0718 32.7615C31.2501 33.0832 30.4979 33.6094 30.337 33.9094L27.676 31.718L27.6716 31.731Z" fill="#A38274"/>
<path d="M103.115 96.8501L104.768 100.472L104.576 100.711L104.316 100.194L103.789 101.342L98.8369 97.3719L99.6152 96.2284L102.276 98.3154L100.815 94.8718C101.324 95.1109 102.537 95.1283 102.937 95.3848C103.063 95.4675 103.089 95.6718 103.111 95.8109C103.481 95.1674 103.976 95.7588 104.572 95.7066C104.389 95.2457 103.959 95.1761 103.585 94.8674C103.055 94.437 102.546 93.9544 102.011 93.5152L102.689 92.5195L107.911 96.6979C107.677 97.024 107.346 97.6719 106.92 97.6936C106.364 97.7241 103.311 96.7023 103.111 96.8501H103.115Z" fill="#A38274"/>
<path d="M113.134 77.4368C113.108 77.6498 113.312 77.7759 113.447 77.9064C114.195 78.6368 115.26 79.276 116.003 80.0456C116.156 80.3717 115.895 81.0282 115.747 81.3586L112.986 80.6847L112.925 79.9412L111.986 80.1499L112.038 80.463L109.272 79.6847L109.642 78.4759L111.151 78.8499L111.251 79.3151L111.407 79.002C111.512 79.4455 111.568 78.9977 111.807 79.0194C111.907 79.0281 112.034 79.1673 112.164 79.189C112.451 79.2368 112.747 79.2281 113.025 79.3151C112.673 79.1064 112.464 78.5629 112.247 78.3759C112.099 78.2455 111.79 78.2064 111.629 78.0542C111.46 77.8933 111.455 77.6672 111.36 77.589C111.29 77.5324 111.133 77.6324 110.99 77.5498C110.781 77.4281 110.294 76.915 110.107 76.7063C111.299 76.4324 112.521 76.2498 113.708 75.9715C113.868 75.9324 113.89 76.0411 113.864 75.7628L110.629 74.9802C110.399 74.8063 110.907 73.9801 110.842 73.6758L117.264 75.4498L116.999 76.6498L113.138 77.4324L113.134 77.4368Z" fill="#A38274"/>
<path d="M94.2459 104.883C93.8458 104.609 93.0371 104.883 93.4023 105.439C93.6545 105.822 94.5546 105.413 94.2459 104.883C94.959 105.983 95.7808 107.026 96.4286 108.17C96.4243 108.226 95.5851 108.761 95.4894 108.796C95.1285 108.913 94.4937 108.361 94.1415 108.17L94.6111 107.596C94.4328 106.935 93.6937 107.822 93.4806 107.787C93.2676 107.752 91.9544 106.739 91.8457 106.865L91.9501 107.805C91.037 107.648 91.2761 108.596 91.9501 108.013L92.2675 110.866L91.1848 111.453L87.6846 105.891L88.7194 105.244L90.5935 108.118L90.176 104.257L93.5154 106.135L91.7501 103.352L92.824 102.596C93.0414 102.648 94.0328 104.561 94.2415 104.883H94.2459Z" fill="#A38274"/>
<path d="M42.3769 24.3135L41.3377 24.9005L39.3549 22.0222L39.5636 24.0048C39.0593 23.6961 38.3201 24.844 38.0722 24.8223L36.4373 23.9005C36.3156 24.0309 38.1592 26.418 38.194 26.7875C38.2201 27.0528 37.1548 27.618 37.0635 27.5484L33.6328 21.9787C33.6676 21.7961 34.5416 21.2613 34.7981 21.3004L38.2114 23.2657L37.7026 19.3742L38.7853 18.5742L42.3812 24.3048L42.3769 24.3135Z" fill="#A38274"/>
<path d="M126.387 70.2363C126.204 73.219 125.699 76.1931 125.03 79.1062L124.682 78.9062L124.199 79.2149C124.325 79.4932 124.634 79.6323 124.93 79.6323C123.973 83.3281 122.778 86.976 121.19 90.45C120.838 91.224 120.377 92.3849 119.943 93.0632C119.803 93.2762 119.556 93.3501 119.469 93.5371C119.39 93.7067 119.503 93.8719 119.447 94.0241C119.264 94.5024 118.503 95.7633 118.19 96.2155C118.108 96.3329 117.964 96.6807 117.786 96.6416C117.286 96.2589 118.06 95.7807 118.025 95.4589C118.008 95.2763 117.734 95.1241 117.777 94.9676C117.851 94.6763 118.538 93.6762 118.725 93.3067C119.99 90.837 121.177 88.25 122.117 85.6368C122.634 84.1977 122.973 82.5498 123.499 81.1758C123.573 80.9889 123.795 80.8628 123.847 80.6802C123.912 80.4541 123.769 80.2671 123.804 80.028C124.017 78.5801 124.539 76.9887 124.795 75.48C125.052 73.9712 125.104 72.4321 125.373 71.0451C125.43 70.7624 126.317 70.1581 126.391 70.245L126.387 70.2363Z" fill="#A38274"/>
<path d="M103.224 33.9236L106.198 31.3192L107.086 32.3061L102.116 36.628C101.929 36.6585 101.289 35.9063 101.294 35.6889L102.603 30.8974L99.4198 33.6062L98.5371 32.6149L103.581 28.293L104.385 29.3756L103.233 33.9192L103.224 33.9236Z" fill="#A38274"/>
<path d="M24.7451 41.3365L24.2537 42.4801L19.2186 43.1062L22.858 44.9975L22.3014 46.2237L16.4141 43.1583L17.0967 41.9713L21.8275 41.4322L18.2838 39.6539L18.8664 38.4147C18.9925 38.3843 20.9622 39.4408 21.1361 39.5713C21.3927 39.7626 21.4883 40.0974 21.7492 40.2104C22.0492 40.3365 22.3536 40.2539 22.6667 40.3365C23.2928 40.4974 24.0754 41.2148 24.7451 41.3365Z" fill="#A38274"/>
<path d="M28.3971 95.6997L28.1883 95.5388L27.984 95.6518C27.884 96.0171 28.184 96.1692 28.171 96.4519C28.1362 97.2258 27.4753 98.3954 27.4579 99.2476L30.6407 96.5388L31.5277 97.5258L26.3143 101.856L25.5795 100.774L26.8317 96.2214C26.0447 96.7953 25.3795 97.5301 24.5881 98.0997C24.2229 98.3606 23.9794 98.2389 23.7533 98.8302L22.9619 97.7432L27.9405 93.517C28.071 93.4865 28.1144 93.5952 28.1883 93.6648C29.0232 94.4605 28.5405 94.7257 28.3971 95.6997Z" fill="#A38274"/>
<path d="M125.343 57.6113C125.186 57.6157 125.191 57.2374 125.169 57.1113C124.891 55.4982 124.695 53.8938 124.356 52.2894C123.856 49.9241 123.13 47.5936 122.638 45.2674C122.621 45.1848 122.399 45.137 122.295 44.9587C122.134 44.6805 121.091 41.9369 121.03 41.6195C120.982 41.3804 121.043 41.2456 121.064 41.0195L120.751 41.1238C119.677 38.2802 118.147 35.5889 116.577 32.9844L117.516 32.7148C117.838 33.2279 118.164 33.7453 118.473 34.2714C118.808 34.841 119.851 36.5367 119.977 37.0541C120.069 37.4193 119.764 37.9542 119.969 38.4063C120.125 38.7455 120.93 39.202 121.186 39.589C121.834 40.5586 122.73 43.2065 123.152 44.4065C124.352 47.824 125.499 52.0155 125.934 55.6069C125.956 55.7895 126.065 56.2939 126.047 56.3982C126.008 56.5983 125.317 57.2504 125.343 57.6113Z" fill="#A38274"/>
<path d="M108.229 88.7108L111.681 90.5456L111.103 91.7239L105.216 88.6586C105.398 88.4542 105.481 88.0064 105.633 87.8325C105.955 87.4585 107.864 87.4629 108.442 87.3542L108.233 87.6629L108.807 87.9412C109.164 87.8281 109.399 87.6151 109.173 87.2455L110.738 87.0368L107.086 85.1585L107.607 83.9062L113.547 86.9933L112.855 88.1629L108.233 88.7064L108.229 88.7108Z" fill="#A38274"/>
<path d="M54.1688 110.313L54.4905 113.018L56.2559 113.331L56.7254 111.035L56.9255 110.939L58.0299 111.144L56.6689 117.713C54.934 117.261 51.699 117.422 51.873 114.848C51.9338 113.918 52.4947 113.444 53.2122 112.957L52.8121 110.096L54.1644 110.309L54.1688 110.313ZM55.9471 114.696C55.3471 114.609 53.8296 113.983 53.3948 114.487C53.2426 115.035 52.7121 115.339 52.8208 115.944L53.2904 115.431C53.9296 115.965 54.8645 115.922 55.6384 116.152L55.9515 114.696H55.9471Z" fill="#A38274"/>
<path d="M76.8353 17.0359L77.2353 20.0447L75.8178 19.7404L75.4352 17.149L73.6829 16.8098L73.2655 19.2099L72.0176 18.9969L73.2655 12.4271C73.3872 12.301 76.3396 13.0097 76.6875 13.1271C78.5528 13.7793 78.618 16.3011 76.8309 17.0316L76.8353 17.0359ZM77.4179 14.0228C77.2049 13.8054 76.857 13.8836 76.9353 14.2445C76.9875 14.4228 77.3701 14.5445 77.5484 14.5141C77.5571 14.3619 77.5266 14.1315 77.4179 14.0228ZM76.5787 14.5445C76.4179 14.4098 74.396 13.9097 74.3134 13.9923L74.0003 15.4533C74.5917 15.5011 75.7787 15.9881 76.3005 15.8272C76.8222 15.6663 77.0049 14.9011 76.5787 14.5445Z" fill="#A38274"/>
<path d="M57.9301 19.0012C57.5084 18.9533 56.8344 19.3794 56.4692 19.1577C56.1604 18.9707 55.3865 17.1054 55.0473 17.0402L53.4385 17.3315L53.9603 19.836L52.6037 20.0447L51.2471 13.5792C52.4037 13.4184 54.2038 12.6575 55.3213 12.8923C56.4387 13.127 57.0822 14.3793 56.8561 15.4836C56.7909 15.8054 56.3344 16.2706 56.3692 16.5272L57.9214 19.0012H57.9301ZM53.7516 16.1793C53.7733 16.1619 53.7559 15.9793 53.9342 15.8924C54.2821 15.7184 55.3604 15.7837 55.5126 15.2793C55.7909 14.3619 55.2256 14.4706 54.9082 14.1488C54.7386 13.9749 54.769 13.6314 54.5386 13.4749L54.5908 14.201L52.8298 14.6836L53.1385 16.0837C53.3342 15.9184 53.669 16.2402 53.7472 16.1837L53.7516 16.1793ZM55.9474 17.5402C56.0822 17.6924 56.917 16.9272 56.0996 16.7098C55.7952 16.6272 56.0039 17.4402 55.9474 17.5402Z" fill="#A38274"/>
<path d="M78.6883 116.561C77.6795 116.726 76.4011 117.235 75.4098 117.305C73.7618 117.418 72.6748 115.857 73.2705 114.326C73.3444 114.135 73.6531 113.787 73.6575 113.704C73.6662 113.557 73.4053 113.331 73.4183 113.183C73.4314 112.987 73.8618 112.774 73.7531 112.291C73.6314 111.748 72.8748 112.37 72.7618 112.291L72.127 111.148L73.4879 110.887L74.8532 113.122L76.5968 112.665L76.0924 110.317L77.3403 110L78.6883 116.565V116.561ZM76.9229 114.065C76.3446 114.235 75.0185 114.304 74.601 114.687C74.1836 115.07 74.5445 115.905 75.0967 115.952C75.2532 115.965 76.949 115.635 77.0316 115.583C77.3099 115.391 76.8229 114.409 76.9229 114.065Z" fill="#A38274"/>
<path d="M88.193 18.1654C87.5104 18.1958 87.6495 18.8915 88.2974 18.7915C88.1974 19.8655 87.8278 20.9177 87.1451 21.7612C86.9495 22.0047 86.0842 22.6829 86.0538 22.7482C85.9972 22.8743 86.1885 23.283 86.0972 23.4786L84.958 23.696L84.8406 22.8743C81.5926 22.6482 81.7709 18.9089 83.5579 17.0219C85.0798 15.4175 87.6408 16.0175 88.193 18.1611V18.1654ZM85.6885 21.1916C86.3103 20.9959 86.7929 19.9089 86.8929 19.322C87.0712 18.2828 86.5886 17.348 85.4276 17.4306C84.0927 17.5306 82.7144 20.909 84.4884 21.5046L84.4797 20.8742C85.0363 20.6611 85.8494 20.2481 85.6885 21.1916Z" fill="#A38274"/>
<path d="M19.3189 51.2457C19.0841 51.2544 18.5058 51.2805 18.3362 51.15C18.1927 51.0413 18.4449 50.7022 17.8579 50.8283V50.3065C17.7101 50.3326 17.497 50.7587 17.4144 50.7978C17.2361 50.8805 16.9753 50.7196 17.0274 50.9848C17.1361 51.4239 17.4753 51.2761 17.6275 51.3761C17.671 51.4022 17.9318 52.1109 18.1666 52.2327C18.2797 52.2935 18.4667 52.1196 18.6493 52.2762C18.8319 52.4327 18.758 52.7544 18.9015 52.8718C18.958 52.9196 19.1711 52.837 19.3537 52.924C19.4189 52.9544 19.9668 53.311 19.8407 53.4371L16.1882 54.1675C16.1622 54.4458 16.1839 54.3371 16.3448 54.3719C16.5057 54.4067 17.3883 54.5545 17.4275 54.5936C17.4796 54.6458 17.4275 55.2893 17.8275 55.4023C18.371 55.5589 18.3536 54.898 18.4406 54.8893L19.4232 55.1067L19.0624 56.4545L12.6445 54.7893L12.9706 53.4458L17.0274 52.6501L16.2622 51.9501L16.2839 50.837L15.8839 50.7196C15.6882 50.9022 16.5578 51.1674 16.0404 51.2413L15.4665 50.7196L15.5665 51.1892C15.1317 51.4022 14.9403 50.6152 14.7316 50.35C14.6534 50.25 14.2925 50.0456 14.249 49.9543C14.0838 49.5935 14.062 49.1108 14.2185 48.7412C14.4055 48.6108 15.5099 49.1413 15.7708 49.2152C16.1709 49.3282 16.8448 49.1456 16.8144 49.6239L17.1361 49.6761L17.0318 50.0935C17.3448 50.0196 17.4014 49.8195 17.7623 49.9891L17.4492 49.6761L18.1797 49.7804V50.4065L18.4362 49.7848L19.1058 49.9978L19.1276 50.4978L19.6363 50.6152V50.3022L19.2189 50.0935L20.1494 50.3109C20.2755 50.6761 19.8624 50.5457 19.9494 50.8718C19.9581 50.9109 20.3537 51.0761 20.1581 51.55C19.758 51.6805 19.6189 51.3848 19.3232 51.237C19.4276 51.2326 19.5319 51.2413 19.6363 51.237V50.7152L19.2711 51.0283L19.2189 50.7152L18.8015 50.9805C18.758 51.2761 19.1189 51.0761 19.3102 51.1544C19.3319 51.1631 19.3189 51.237 19.3232 51.2413L19.3189 51.2457Z" fill="#A38274"/>
<path d="M70.8702 111.355L71.2876 118.034C69.9614 118.034 68.3613 118.477 67.183 117.704C65.3872 116.525 65.1916 113.373 66.9743 112.103C68.0917 111.308 69.5614 111.455 70.8702 111.355ZM69.931 116.777L69.6745 112.908C67.6352 112.403 66.4742 114.047 67.3047 115.908C67.7787 116.973 68.9527 116.834 69.931 116.777Z" fill="#A38274"/>
<path d="M44.9816 106.455L45.1947 107.233C45.6599 107.303 46.1208 107.425 46.5252 107.677C47.7035 108.42 47.4948 109.22 47.3905 110.464C47.2992 111.56 47.2818 112.181 46.5035 113.021C45.3121 114.312 43.3902 114.408 42.2771 112.964C40.9857 111.281 42.2293 108.52 43.8381 107.49C43.8816 107.855 44.1685 108.138 44.4642 108.325C44.4338 108.099 44.5251 107.755 44.4512 107.555C44.399 107.407 43.6685 107.238 43.8381 106.655L44.9773 106.455H44.9816ZM44.2598 108.846C43.3467 109.507 42.5162 111.499 43.525 112.347C45.5556 114.042 47.4514 109.203 45.5599 108.642C45.199 108.533 45.6208 109.264 45.5121 109.373L44.4164 109.581L44.2555 108.851L44.2598 108.846ZM42.7989 110.933C42.4467 110.947 42.051 111.086 41.964 111.455C42.3815 111.486 42.7989 111.438 42.7989 110.933Z" fill="#A38274"/>
<path d="M63.3213 17.8188C63.1865 17.9448 62.9039 18.1362 62.7343 18.2231C62.2908 18.4536 61.5082 18.6318 61.0125 18.6927C60.4255 18.7666 59.682 18.7405 59.0776 18.7927L58.6602 12.1142C60.3907 12.062 62.3343 11.5229 63.5648 13.1099C64.5605 14.3969 64.5214 16.6752 63.3213 17.8188ZM62.9691 15.4274C62.8909 15.2317 62.9691 15.0013 62.917 14.7969C62.4778 13.2403 61.4299 13.2099 60.0211 13.3664L60.3342 17.3318H60.9603L60.856 18.0622C61.943 18.2275 61.6386 17.6231 61.956 17.1318C62.0473 16.9883 62.4561 16.7926 62.63 16.5535C62.8561 16.2404 62.8257 15.9057 63.2518 15.7187C63.2431 15.5665 62.9778 15.4491 62.9691 15.4317V15.4274Z" fill="#A38274"/>
<path d="M64.2957 111.665L63.8783 118.343L58.9736 118.03L59.078 116.674L62.526 116.943L62.626 115.839L60.6433 115.734L60.7477 114.378L62.6608 114.486C62.9304 114.426 62.8087 113.173 62.8348 112.917L59.2867 112.708L59.3345 111.447L64.3001 111.66L64.2957 111.665Z" fill="#A38274"/>
<path d="M85.4795 122.207L85.1664 122.521L86.4187 122.729C86.4187 122.838 86.3187 122.873 86.2404 122.912C84.5925 123.777 80.3313 124.803 78.4051 125.199C78.1138 125.26 77.205 125.495 76.9963 125.447C76.9268 125.429 76.6746 124.851 76.3615 124.925L75.8093 125.734C72.7221 126.177 69.6219 126.621 66.4869 126.586L66.5913 126.377H66.2261L66.2782 126.69L63.9824 126.586V125.647L67.7957 125.651C72.296 125.373 76.7659 124.716 81.1183 123.529C82.5837 123.129 84.0142 122.603 85.4795 122.203V122.207Z" fill="#A38274"/>
<path d="M66.583 11.8177L66.6482 12.1221C68.1048 11.7308 69.6049 11.9873 71.0789 12.1177L70.9572 13.3004L70.8094 13.4613L67.4265 13.1613L67.3222 14.3091L69.3049 14.4135C69.2658 14.757 69.3614 15.1831 69.3049 15.5092C69.2701 15.7005 69.1571 15.8396 68.944 15.7657C68.7309 15.6918 68.8049 15.1874 68.5788 15.1439L68.4614 15.6526L67.2178 15.6657L67.1135 17.231L70.7659 17.4397L70.6615 18.7962L65.7568 18.4832L66.1743 11.8047L66.583 11.8177Z" fill="#A38274"/>
<path d="M98.0022 31.9399L96.8717 31.0442L97.363 29.3485L95.4238 27.7789L93.8802 28.4658C93.7324 28.2919 92.7366 27.6615 92.8888 27.4528L99.1892 24.2266C99.4501 24.5483 100.215 24.8527 100.194 25.3005L98.0022 31.9399ZM97.8978 27.9745L98.4196 26.2005L96.7499 26.931C96.5978 27.1006 97.7804 28.0615 97.8978 27.9745Z" fill="#A38274"/>
<path d="M32.0548 98.2031L33.0809 99.1118C33.1679 99.5771 32.5244 100.408 32.7287 100.812C32.7766 100.903 34.1201 102.038 34.2984 102.168C34.9245 102.621 35.4941 101.782 36.1637 101.664L37.1682 102.534L30.859 105.89L29.7764 104.956L32.0591 98.2031H32.0548ZM33.3027 102.586C32.6853 102.842 32.6809 102.377 32.2113 102.168L31.533 103.942C32.0939 103.529 33.4679 103.477 33.307 102.586H33.3027Z" fill="#A38274"/>
<path d="M49.6516 15.8044C51.0343 17.3131 51.3995 20.6437 49.0603 21.4524C46.721 22.2611 45.4774 20.4306 44.9948 18.4828L45.7644 18.6871C46.3949 17.8958 45.5905 17.7393 44.8904 17.961C44.6034 15.2044 47.7515 13.7304 49.6516 15.8088V15.8044ZM46.5905 16.5305C45.5644 17.6045 46.921 21.0828 48.7863 20.135C50.0951 19.4697 49.1559 16.3827 47.9602 16.1914C47.508 16.1175 46.921 16.1914 46.5905 16.5349V16.5305Z" fill="#A38274"/>
<path d="M34.4587 108.838C34.3978 108.751 34.6196 108.407 34.6805 108.294C35.1544 107.442 36.6371 104.968 37.3198 104.464C39.459 102.885 42.1679 105.12 41.4461 107.546L38.9764 111.551L37.9024 110.79L40.1374 107.177C40.4765 106.077 39.5286 104.99 38.4068 105.342C37.572 105.603 36.2067 108.551 35.5979 109.32C35.324 109.499 34.7761 108.881 34.4544 108.833L34.4587 108.838Z" fill="#A38274"/>
<path d="M97.3063 105.681C96.6584 105.011 95.0409 103.251 94.8974 102.403C94.4409 99.733 97.4976 98.246 99.4673 99.92L102.263 103.159L101.302 104.042L98.5194 100.868C97.4063 99.9417 95.7409 101.003 96.2845 102.372L99.2542 105.868L98.2629 106.755C97.9498 106.581 97.8672 106.051 97.6932 105.864C97.5715 105.729 97.3671 105.746 97.3063 105.681Z" fill="#A38274"/>
<path d="M81.3059 115.108C81.5363 114.617 80.8363 114.53 80.7841 114.069L80.2667 114.278L79.7492 113.3C79.7927 113.108 80.3754 112.991 80.5319 112.826C80.6884 112.66 80.6058 112.417 80.7841 112.404C81.0928 113.321 81.5146 114.087 82.6147 113.974C83.3321 113.9 83.3625 113.391 83.9234 113.182C83.7321 111.921 83.2277 109.265 81.4146 109.956C80.3275 110.369 80.7493 111.243 80.5623 111.452C80.5319 111.486 80.3275 111.465 80.2145 111.569C80.058 111.717 79.9058 112.265 79.584 112.404C79.2318 112.482 79.2014 111.23 79.2231 110.995C79.4144 108.508 82.4146 107.608 84.0191 109.534C86.1236 112.069 85.0931 116.195 81.3059 115.113V115.108Z" fill="#A38274"/>
<path d="M92.1587 19.2134L89.7803 23.1483C89.5803 24.4092 91.0326 25.4266 92.0587 24.4875L94.5067 20.6743L95.5937 21.4526C94.1763 23.0744 93.598 26.1788 91.0152 26.2006C91.0978 25.7571 91.1935 25.3918 91.0152 24.9483C90.8413 24.8266 90.0542 25.6918 90.1803 25.9919C89.1368 25.544 88.3585 24.4092 88.415 23.2439C88.4802 21.9613 90.3021 20.0438 90.8369 18.8221C91.4239 18.5351 91.6544 19.0655 92.1674 19.2134H92.1587Z" fill="#A38274"/>
<path d="M33.7195 25.6801L33.3152 25.8018V26.1888C33.7021 26.4062 34.1239 26.1757 34.45 26.4583C35.324 27.2192 35.324 28.8976 34.6544 29.8019C33.3717 31.5368 30.9107 31.1672 29.8541 29.3845C30.5019 29.1019 30.5845 28.4975 30.0106 28.0845L29.3845 28.9193C28.7409 27.9323 27.0539 27.1323 28.654 26.1018L31.6324 29.3845C32.689 30.0715 34.1065 29.0976 33.7717 27.8714C33.5804 27.1671 30.7628 24.5191 30.8019 24.2887L31.6803 23.3887L33.7152 25.6801H33.7195Z" fill="#A38274"/>
<path d="M62.8169 125.669L63.4648 126.586C57.147 126.526 50.8422 125.334 44.8896 123.299L45.868 122.621C51.3336 124.434 57.0557 125.408 62.8169 125.669Z" fill="#A38274"/>
<path d="M42.7984 121.891C43.4246 121.852 44.4203 122.048 43.8768 122.839L41.3375 121.996L41.5462 121.161C40.8157 121.213 40.4026 120.344 39.9287 121.365C38.4677 120.639 36.9502 119.996 35.524 119.196C35.224 119.026 34.2718 118.535 34.0979 118.348C33.9239 118.161 34.2022 117.913 33.5065 118.026L33.7152 117.713L33.0152 117.735L27.667 114.152L27.9757 113.117C32.4934 116.543 37.4372 119.413 42.7332 121.478C42.9463 121.57 42.8158 121.709 42.7897 121.883L42.7984 121.891Z" fill="#A38274"/>
<path d="M19.5276 74.8339L19.7363 76.0774L17.0318 76.7687C16.1752 77.6818 15.3882 78.6818 14.5229 79.5818C14.4229 79.6862 13.9012 80.2688 13.7881 80.1514L13.5272 78.6949L15.5621 76.2904L12.6576 75.2295L12.3271 73.6816L16.7753 75.3469L19.5276 74.8339Z" fill="#A38274"/>
<path d="M30.8845 84.4509C30.9889 84.5118 31.915 86.2075 32.115 86.5075C32.8673 87.625 33.6804 88.6989 34.5065 89.7598L34.35 90.7946H34.9761L35.0283 90.3772L38.6285 94.0817L38.1068 94.2948C38.2068 94.973 38.6546 94.8339 38.7851 94.2382L39.7677 95.2209L39.6721 96.2209C35.0718 92.6469 31.4759 87.8728 28.8235 82.7074C28.78 82.5813 28.8496 82.4987 28.9757 82.5552C29.0453 82.5857 30.0888 83.4335 30.1323 83.4944C30.2454 83.6727 30.0453 83.9422 30.0671 84.1683C30.1106 84.6205 30.6671 84.3292 30.8889 84.4553L30.8845 84.4509Z" fill="#A38274"/>
<path d="M115.681 52.2331C115.368 52.5809 114.855 53.2158 114.594 53.594C114.533 53.681 114.451 53.6984 114.49 53.8549L117.199 54.8506L117.621 56.4637L113.281 54.7984L110.538 55.3071L110.216 54.0636C110.303 53.9506 112.455 53.6158 112.855 53.4114C113.52 53.0766 113.79 52.2331 114.442 51.8679C114.581 52.1548 113.986 52.3027 114.494 52.4418L114.186 52.7549L114.707 52.9723L114.916 52.3462C114.768 52.2375 114.647 52.3505 114.703 52.0809H115.016C115.181 51.907 114.538 51.4287 115.121 50.9809C115.407 50.7591 115.238 51.2766 115.538 51.0331V51.5548L115.842 51.4548L115.955 51.6548L116.06 51.0287L115.851 51.3418L115.634 50.5635C115.66 50.2113 116.168 50.2939 116.06 49.8809L116.477 51.3896C116.434 51.7157 115.89 51.9983 115.681 52.2244V52.2331Z" fill="#A38274"/>
<path d="M109.716 38.6973C109.585 38.5712 109.081 37.4712 109.011 37.4712L104.528 40.293L104.372 40.08L104.685 39.9756C104.289 40.0582 103.885 39.6712 103.846 39.2886C103.82 39.0321 107.707 36.8103 108.19 36.4277C108.355 36.1755 107.372 35.1494 107.298 34.8146L108.307 34.1406L111.042 38.1625L111.007 38.306C110.655 38.506 110.125 39.0843 109.724 38.693L109.716 38.6973Z" fill="#A38274"/>
<path d="M114.286 48.6362L113.595 46.9709L109.594 48.4927C109.316 48.6232 109.016 48.2623 109.068 48.6362H108.859L108.842 48.4536C108.399 48.6536 108.255 48.0014 108.225 47.6579L113.034 45.7622L113.121 45.5752L112.508 43.9361L113.699 43.5273L115.521 48.0623L114.286 48.6319V48.6362Z" fill="#A38274"/>
<path d="M21.4055 81.2988L21.8229 82.551L16.827 84.4424C17.0009 84.6685 16.7139 84.8424 16.7313 84.9859C16.7704 85.3424 17.1835 85.3598 17.24 85.4338C17.2879 85.499 17.4618 86.0642 17.4487 86.1381L16.1878 86.6207L14.5225 81.9293L15.6138 81.5206L16.2921 83.1772C16.4965 83.0163 17.0965 83.2076 17.127 83.1772C17.1574 83.1467 17.0574 82.9424 17.1966 82.8598C17.5574 82.6511 17.9966 82.7293 18.3053 82.6554C18.401 82.6337 18.414 82.4336 18.5532 82.3641C19.4141 81.938 20.5011 81.6641 21.4055 81.2988Z" fill="#A38274"/>
<path d="M21.7184 93.721L22.662 95.2341C22.662 95.4385 21.6184 96.0819 21.5141 96.008L18.9443 91.8383L19.2617 91.634C19.3705 91.6427 19.44 92.1427 19.7792 92.047C20.2227 91.7296 19.2878 91.2079 20.1357 91.2253L21.0314 92.6688L25.5056 89.873L26.1839 90.7644L26.1013 90.96L21.7097 93.7253L21.7184 93.721Z" fill="#A38274"/>
<path d="M109.52 22.4102C109.964 22.8841 110.625 23.3972 110.985 23.9146C111.181 24.1929 111.316 24.7537 111.381 24.8233C111.459 24.9059 111.79 24.945 111.99 25.1016C112.12 25.2016 112.981 26.2712 112.999 26.3755C113.025 26.5321 112.881 26.7495 112.925 26.9321L113.29 26.7234L114.655 28.393C114.799 28.6713 114.155 28.9582 114.077 29.2278L115.216 29.1321C115.425 29.4843 115.164 29.6322 115.12 29.9583C115.481 29.9583 115.529 29.7974 115.799 30.0583C116.016 30.2626 117.077 31.8757 117.225 32.1844C117.273 32.2801 117.347 32.3279 117.308 32.467C116.968 32.1453 116.442 32.641 116.264 32.5279C115.868 31.9496 115.616 31.8105 115.951 31.1105L115.442 31.3061C112.707 27.1538 109.411 23.332 105.729 19.9927C105.642 19.9144 105.533 19.8449 105.411 19.8405L106.198 19.6318C106.707 19.6101 107.09 19.9579 107.45 20.2579C108.198 20.8884 108.85 21.7015 109.52 22.4145V22.4102Z" fill="#A38274"/>
<path d="M126.278 58.4533L126.599 61.9404C126.395 63.9187 126.86 66.4014 126.599 68.3145C126.539 68.758 125.943 69.0362 125.551 69.1971C125.765 65.5448 125.673 61.8795 125.343 58.2402L126.278 58.4533Z" fill="#A38274"/>
<path d="M21.8231 47.7015C21.6622 47.9406 21.4709 48.9667 21.1622 48.9407L15.04 46.5014L15.6053 45.3145L21.8188 47.7015H21.8231Z" fill="#A38274"/>
<path d="M25.7753 40.0656L25.3362 39.9613L20.0967 36.5351L20.7272 35.4785L26.3188 38.983L26.4058 39.0873L25.7753 40.0656Z" fill="#A38274"/>
<path d="M109.516 94.0637C109.412 94.2028 109.36 94.8376 109.129 94.7506L103.773 91.1418C103.699 90.9462 104.02 90.3679 104.16 90.2157C104.399 89.9505 104.564 90.1592 104.821 90.294C105.721 90.7635 109.021 92.8375 109.686 93.4636C109.773 93.5462 109.934 93.6158 109.899 93.7593C109.838 93.9245 109.59 93.9593 109.516 94.0593V94.0637Z" fill="#A38274"/>
<path d="M47.7943 100.307C47.9378 100.533 47.6117 101.32 47.2856 101.19C44.6245 99.8461 42.0983 98.2417 39.7764 96.3764L40.2938 95.746C40.3677 95.6808 40.446 95.6851 40.5373 95.7112C40.6286 95.7373 41.6939 96.659 41.933 96.8286C43.781 98.146 45.7246 99.3635 47.7943 100.307Z" fill="#A38274"/>
<path d="M23.2716 85.6888L23.7934 86.6889L23.7021 86.8758L17.806 89.7455C17.706 89.4237 17.1581 88.8368 17.4364 88.5454L21.0149 86.841C21.9715 87.4498 21.8715 86.5063 22.2454 86.1497C22.3541 86.0454 23.1759 85.6193 23.2716 85.6845V85.6888Z" fill="#A38274"/>
<path d="M114.908 83.4895L114.438 84.8418C114.108 84.6113 113.377 84.5287 113.09 84.3113C112.781 84.0809 112.868 83.2808 112.164 83.5026C112.029 83.5461 111.96 83.7113 111.877 83.7504C111.62 83.8635 108.725 82.5721 108.225 82.3851L108.707 81.1895L114.908 83.4895Z" fill="#A38274"/>
<path d="M112.486 104.348L112.19 104.3C112.19 104.691 110.973 106.187 110.729 106.296C110.555 106.37 109.59 106.209 109.69 105.983C109.725 105.9 110.742 104.843 110.938 104.617C112.107 103.261 113.29 101.809 114.368 100.326C115.112 99.3041 115.755 98.1866 116.521 97.1953C117.064 97.2649 117.338 97.4866 117.086 98.0301C116.586 99.1041 114.999 101.148 114.225 102.161C113.66 102.9 113.034 103.596 112.49 104.348H112.486Z" fill="#A38274"/>
<path d="M112.194 40.2891C112.451 40.7673 111.938 40.9586 112.194 41.4369C112.277 41.4978 112.811 41.1021 112.716 41.5369L106.981 44.4196C106.728 44.5196 106.324 43.7066 106.228 43.4848C106.172 43.3544 106.089 43.3935 106.25 43.2631C106.415 43.1239 108.824 41.9196 109.033 41.8717C109.116 41.8543 109.189 41.8456 109.272 41.8543L109.063 42.5848L109.781 42.363L109.703 41.4543L112.19 40.2934L112.194 40.2891Z" fill="#A38274"/>
<path d="M103.189 113.408L100.511 115.313C100.228 114.43 99.8889 115.047 99.3584 115.056C100.811 113.982 102.289 112.917 103.685 111.765C104.115 111.408 105.985 109.608 106.25 109.517C106.489 109.439 106.868 109.891 107.076 110.043C107.076 110.169 105.315 111.665 105.194 111.713C105.028 111.778 104.698 111.626 104.424 111.66C103.698 111.756 103.433 112.839 103.185 113.404L103.189 113.408Z" fill="#A38274"/>
<path d="M54.1605 103.72C53.8822 103.898 48.6819 102.002 48.1383 101.472L48.0166 100.498L54.3822 102.846C54.6388 103.037 54.1648 103.481 54.1605 103.72Z" fill="#A38274"/>
<path d="M95.811 117.926L95.9067 118.33C95.511 118.569 92.6456 120.295 92.4717 120.117L92.4891 119.091L97.759 116.061L98.4721 116.778C97.6155 117.3 96.872 118.026 95.8067 117.926H95.811Z" fill="#A38274"/>
<path d="M30.1712 47.0709C29.9278 46.9492 30.0104 46.4448 29.9408 46.21C29.893 46.0404 29.6582 45.9752 29.693 45.8187C29.7756 45.4708 30.7061 44.0534 30.9626 43.6403C31.7844 42.3229 32.7019 41.0446 33.7193 39.875C33.828 40.575 32.8714 41.2924 32.7236 41.749C32.5931 42.1533 32.8062 42.6055 32.7279 42.7925C32.5018 43.3534 31.3278 44.8926 30.9235 45.5839C30.6452 46.0578 30.3452 46.5448 30.1712 47.0752V47.0709Z" fill="#A38274"/>
<path d="M91.1144 119.908C91.0448 120.304 91.197 120.469 91.4274 120.743L86.7619 122.708L86.001 122.047L91.1144 119.908Z" fill="#A38274"/>
<path d="M59.6824 103.969L60.1216 104.987C59.0041 104.8 57.8693 104.669 56.7605 104.434C56.4953 104.378 54.9778 104.056 54.8995 104C54.6952 103.843 54.8343 103.26 54.7995 103.004L59.6781 103.969H59.6824Z" fill="#A38274"/>
<path d="M24.6403 19.5224C24.6794 19.692 24.5838 19.7355 24.4881 19.8398C24.3185 20.0225 22.8663 21.3964 22.7576 21.4486C22.6184 21.5138 21.8314 21.7182 21.6184 21.7703C21.4836 21.8008 21.3357 21.8095 21.3053 21.6616C21.2662 21.466 23.1489 19.779 23.3924 19.4746L24.6446 19.5268L24.6403 19.5224Z" fill="#A38274"/>
<path d="M26.8541 16.8866C26.9324 17.0127 27.4281 17.0692 27.5629 17.1735L25.3714 18.8953C24.8931 17.7127 26.0628 17.2562 26.7802 16.5996C26.8889 16.6213 26.7976 16.7953 26.8541 16.8866Z" fill="#A38274"/>
<path d="M39.7718 25.8884L38.5195 25.1057L39.6153 24.2188L39.7718 25.8884Z" fill="#A38274"/>
<path d="M25.3717 15.875C25.0543 16.1098 23.8412 17.349 23.5629 17.3098C23.4629 17.2968 23.3281 17.1098 23.1803 17.1229C23.1194 16.875 23.2237 16.9533 23.315 16.8924C23.7368 16.6011 24.3412 16.5272 24.3369 15.8837L25.3674 15.875H25.3717Z" fill="#A38274"/>
<path d="M115.625 61.562L115.116 61.5229L115.742 60.7402L115.625 61.562Z" fill="#A38274"/>
</g>
<defs>
<clipPath id="clip0_155_1783">
<rect width="130" height="130" fill="white"/>
</clipPath>
</defs>
</svg>
