<svg width="55" height="41" viewBox="0 0 55 41" fill="none" xmlns="http://www.w3.org/2000/svg">
<path d="M19.375 0H5.8125C4.27093 0 2.7925 0.612387 1.70244 1.70244C0.612387 2.7925 0 4.27093 0 5.8125V19.375C0 20.9166 0.612387 22.395 1.70244 23.4851C2.7925 24.5751 4.27093 25.1875 5.8125 25.1875H11.625C11.5127 28.5349 10.1267 31.7131 7.75 34.0729C7.20824 34.6148 6.83931 35.3052 6.68986 36.0568C6.54041 36.8083 6.61715 37.5873 6.91037 38.2953C7.20359 39.0032 7.70013 39.6084 8.33722 40.0342C8.97431 40.46 9.72334 40.6873 10.4896 40.6875C14.3855 40.6803 18.1198 39.1295 20.8747 36.3747C23.6295 33.6198 25.1803 29.8855 25.1875 25.9896V5.8125C25.1875 4.27093 24.5751 2.7925 23.4851 1.70244C22.395 0.612387 20.9166 0 19.375 0ZM21.3125 25.9896C21.3094 28.8591 20.1682 31.6101 18.1392 33.6392C16.1101 35.6682 13.3591 36.8094 10.4896 36.8125C12.0831 35.2282 13.3465 33.3435 14.2065 31.2676C15.0665 29.1916 15.5062 26.9657 15.5 24.7186V23.25C15.5 22.7361 15.2959 22.2433 14.9325 21.88C14.5692 21.5166 14.0764 21.3125 13.5625 21.3125H5.8125C5.29864 21.3125 4.80583 21.1084 4.44248 20.745C4.07913 20.3817 3.875 19.8889 3.875 19.375V5.8125C3.875 5.29864 4.07913 4.80583 4.44248 4.44248C4.80583 4.07913 5.29864 3.875 5.8125 3.875H19.375C19.8889 3.875 20.3817 4.07913 20.745 4.44248C21.1084 4.80583 21.3125 5.29864 21.3125 5.8125V25.9896Z" fill="#EEEEEE"/>
<path d="M48.4375 0H34.875C33.3334 0 31.855 0.612387 30.7649 1.70244C29.6749 2.7925 29.0625 4.27093 29.0625 5.8125V19.375C29.0625 20.9166 29.6749 22.395 30.7649 23.4851C31.855 24.5751 33.3334 25.1875 34.875 25.1875H40.6875C40.5752 28.5349 39.1892 31.7131 36.8125 34.0729C36.2707 34.6148 35.9018 35.3052 35.7524 36.0568C35.6029 36.8083 35.6797 37.5873 35.9729 38.2953C36.2661 39.0032 36.7626 39.6084 37.3997 40.0342C38.0368 40.46 38.7858 40.6873 39.5521 40.6875C43.448 40.6803 47.1823 39.1295 49.9372 36.3747C52.692 33.6198 54.2428 29.8855 54.25 25.9896V5.8125C54.25 4.27093 53.6376 2.7925 52.5476 1.70244C51.4575 0.612387 49.9791 0 48.4375 0ZM50.375 25.9896C50.3719 28.8591 49.2307 31.6101 47.2017 33.6392C45.1726 35.6682 42.4216 36.8094 39.5521 36.8125C41.1456 35.2282 42.409 33.3435 43.269 31.2676C44.129 29.1916 44.5687 26.9657 44.5625 24.7186V23.25C44.5625 22.7361 44.3584 22.2433 43.995 21.88C43.6317 21.5166 43.1389 21.3125 42.625 21.3125H34.875C34.3611 21.3125 33.8683 21.1084 33.505 20.745C33.1416 20.3817 32.9375 19.8889 32.9375 19.375V5.8125C32.9375 5.29864 33.1416 4.80583 33.505 4.44248C33.8683 4.07913 34.3611 3.875 34.875 3.875H48.4375C48.9514 3.875 49.4442 4.07913 49.8075 4.44248C50.1709 4.80583 50.375 5.29864 50.375 5.8125V25.9896Z" fill="#EEEEEE"/>
</svg>
