<svg width="130" height="130" viewBox="0 0 130 130" fill="none" xmlns="http://www.w3.org/2000/svg">
<rect x="0.5" y="0.5" width="129" height="129" rx="64.5" stroke="#8D7547"/>
<path d="M54.0912 35.5036C52.4718 35.8445 50.0855 36.6797 49.0628 37.2592C48.5173 37.566 48.3639 37.7535 48.3298 38.1967C48.2787 38.6399 48.3469 38.7763 48.7048 38.9297C49.0628 39.1001 49.3525 39.0319 50.7162 38.4354C53.5116 37.2422 54.9434 36.9524 58.182 36.9695C61.3013 36.9865 62.3752 37.1911 65.1025 38.299C72.6195 41.3672 77.2387 49.7876 75.824 57.833C74.5285 65.2136 69.2104 70.7022 61.5911 72.509C60.1763 72.8499 55.8298 72.8158 54.3468 72.4579C49.898 71.367 46.3355 69.1 43.8128 65.7591C41.1708 62.2136 39.9776 58.4466 40.1651 54.083C40.3526 49.3273 42.0912 45.424 45.5173 42.0319C46.4037 41.1456 47.1026 40.3274 47.1026 40.1399C47.1026 39.6626 46.506 39.2024 46.0457 39.3047C45.5173 39.441 43.3526 41.5888 42.2276 43.0887C40.6253 45.2365 39.4833 47.691 38.8015 50.5376C38.4094 52.1057 38.3753 57.3898 38.7162 58.8557C39.0742 60.3386 39.6196 61.9239 40.131 63.0318L40.6083 64.0545L38.5287 64.1398C36.2617 64.225 35.8526 64.3613 35.3413 65.2136C35.0174 65.742 35.0004 66.1852 35.0004 78.2533C35.0004 92.043 34.9492 91.4123 36.0742 92.0941C36.4833 92.3498 36.9265 92.435 37.9322 92.435C39.1083 92.435 39.2446 92.4691 39.3469 92.793C39.5174 93.2873 40.4208 94.2759 40.9833 94.5828C41.5969 94.8896 43.2333 94.8896 43.8469 94.5828C44.4094 94.2759 45.3128 93.2873 45.4832 92.793C45.5855 92.4691 45.7219 92.435 46.9321 92.435C48.1423 92.435 48.2787 92.4691 48.381 92.793C48.5514 93.2873 49.4548 94.2759 50.0173 94.5828C50.6309 94.8896 52.2673 94.8896 52.8809 94.5828C53.4434 94.2759 54.3468 93.2873 54.5173 92.793C54.6196 92.4691 54.7559 92.435 55.9832 92.435C56.7843 92.435 57.3298 92.5032 57.3298 92.6055C57.3298 93.0146 58.2332 94.1055 58.8468 94.4464C59.6309 94.8896 61.182 94.9578 61.915 94.5828C62.4775 94.2759 63.3809 93.2873 63.5513 92.793C63.6536 92.4521 63.7729 92.435 67.7956 92.435C72.2104 92.435 72.3297 92.418 72.3297 91.5828C72.3297 90.7476 72.2104 90.7305 67.7956 90.7305C63.7729 90.7305 63.6536 90.7135 63.5513 90.3726C63.3809 89.8612 62.4775 88.8726 61.8809 88.5828C61.1138 88.1737 59.7161 88.2248 58.8809 88.6851C58.2161 89.0771 57.3298 90.1169 57.3298 90.526C57.3298 90.6623 56.9207 90.7305 56.0002 90.7305H54.6877L54.2957 89.9976C53.1707 87.8669 50.0684 87.7135 48.7219 89.7419C48.4832 90.0828 48.2957 90.4578 48.2957 90.5601C48.2957 90.6623 47.7673 90.7305 46.9662 90.7305H45.6537L45.2617 89.9976C44.8185 89.1623 43.6935 88.3612 42.9264 88.3271C41.989 88.293 41.3924 88.3783 40.9492 88.5998C40.4208 88.8896 39.5003 89.8953 39.3469 90.3726C39.2617 90.6794 39.1083 90.7305 38.1708 90.7305C37.5742 90.7305 37.0288 90.6453 36.9094 90.526C36.6367 90.2532 36.6197 74.8783 36.8924 74.8783C37.131 74.8783 39.6878 75.6113 55.1139 80.0772C62.1025 82.1056 70.4036 84.4919 73.5569 85.4124L79.3183 87.0658V88.8896V90.7305H77.1194C75.3467 90.7305 74.8524 90.7816 74.6479 91.0032C74.2899 91.3612 74.3069 91.8044 74.6819 92.1453C74.9547 92.401 75.6024 92.435 80.1194 92.435H85.2501L85.5739 93.0657C85.7614 93.4066 86.1876 93.918 86.5455 94.2078C87.0569 94.6339 87.3637 94.7362 88.2671 94.7873C89.2216 94.8555 89.4603 94.8043 90.125 94.4123C90.6023 94.1396 91.0796 93.6623 91.3523 93.2021C91.7784 92.4691 91.8296 92.435 92.5455 92.435C93.5 92.435 94.233 92.06 94.6591 91.3612C94.983 90.8498 95 90.4748 95 84.4237C95 78.509 94.9659 77.9806 94.6761 77.3158C94.3352 76.5829 91.3012 72.0318 90.6705 71.3329C89.8694 70.4295 89.5796 70.3613 85.1989 70.2761L81.108 70.1909L81.0228 67.7534L80.9376 65.2988L80.3069 64.7193L79.6592 64.1398H77.6137C76.4887 64.1398 75.5683 64.1057 75.5683 64.0716C75.5683 64.0375 75.841 63.4239 76.1819 62.6909C78.0399 58.6512 78.3126 53.0603 76.8297 48.6455C75.841 45.6626 74.3581 43.2933 72.0058 40.941C69.0229 37.9581 65.7502 36.2024 61.5911 35.4013C59.7673 35.0604 55.9321 35.1115 54.0912 35.5036ZM42.0401 66.3557C42.5514 67.1909 45.0401 69.7306 46.2844 70.6511L47.4435 71.5204L46.8128 72.3045C45.1935 74.2988 44.4776 75.134 44.3923 75.117C44.3412 75.0999 42.5855 74.6056 40.506 74.009L36.7049 72.9352V69.5943C36.7049 67.225 36.756 66.2022 36.9094 66.0488C37.0458 65.9125 37.864 65.8443 39.4321 65.8443H41.7503L42.0401 66.3557ZM79.233 66.0488C79.2842 66.1682 79.3012 70.5318 79.2842 75.7476L79.233 85.2249L62.9036 80.5033C53.9207 77.8954 46.5401 75.7306 46.4889 75.6795C46.4037 75.5942 48.7389 72.6283 48.9775 72.5261C49.0287 72.509 49.8469 72.7818 50.7844 73.1567C56.8866 75.5942 63.8241 74.8272 69.3297 71.0772C70.6592 70.1738 72.9092 68.0091 73.7785 66.7988L74.4604 65.8443H76.8126C78.5342 65.8443 79.1819 65.8954 79.233 66.0488ZM84.4319 75.6454C84.4319 79.7363 84.5001 80.0772 85.5057 80.6737C86.0001 80.9806 86.3751 81.0147 89.6819 81.0147H93.2955V85.668C93.2955 89.0601 93.2443 90.3726 93.0909 90.526C92.9716 90.6453 92.6477 90.7305 92.3409 90.7305C91.8977 90.7305 91.7443 90.6112 91.2841 89.8953C89.9034 87.6453 86.6648 87.7987 85.5398 90.168L85.2671 90.7476L83.1876 90.6964L81.108 90.6453L81.0569 81.3044L81.0228 71.9806H82.7273H84.4319V75.6454ZM89.1534 72.3897C89.9375 73.0374 93.125 77.9635 93.2443 78.6794L93.3466 79.3101H89.9375C87.5341 79.3101 86.4944 79.259 86.341 79.1056C86.1876 78.9522 86.1364 77.9124 86.1364 75.4408V71.9806H87.3978C88.4887 71.9806 88.7273 72.0318 89.1534 72.3897ZM43.2162 90.2362C43.4037 90.3385 43.6594 90.6794 43.7958 91.0032C44.0003 91.4976 44.0003 91.668 43.7958 92.1623C43.2162 93.5259 41.4435 93.4407 40.9662 92.026C40.6424 91.0203 41.3242 90.0657 42.381 90.0487C42.6537 90.0487 43.0117 90.1339 43.2162 90.2362ZM52.4718 90.4748C52.7957 90.7816 52.898 91.0714 52.898 91.5828C52.898 93.3384 50.6821 93.7305 50.0003 92.0941C49.4037 90.6453 51.3639 89.3498 52.4718 90.4748ZM61.5059 90.4748C61.8297 90.7816 61.932 91.0714 61.932 91.5828C61.932 93.3384 59.7161 93.7305 59.0343 92.0941C58.4377 90.6453 60.3979 89.3498 61.5059 90.4748ZM89.5796 90.5601C90.0228 91.0203 90.0909 91.1737 90.0057 91.7191C89.6989 93.6453 87.0057 93.5089 86.9887 91.5657C86.9887 90.168 88.5569 89.5544 89.5796 90.5601Z" fill="#CAAC8F"/>
<path d="M53.6115 46.7531C52.5717 47.3838 52.5547 47.5713 52.5547 54.8497C52.5547 62.128 52.5717 62.3155 53.6115 62.9462C54.157 63.2701 54.4467 63.2871 61.0092 63.2871C67.8444 63.2871 67.8444 63.2871 68.4239 62.8951C69.4466 62.2133 69.4296 62.3326 69.3955 54.6451L69.3444 47.6054L68.7819 47.0599L68.2364 46.4974L61.1967 46.4463C54.3956 46.4122 54.157 46.4122 53.6115 46.7531ZM58.0092 50.6054V52.9235L58.5035 53.4178C58.9978 53.9122 59.0149 53.9122 61.0433 53.9122H63.0887L63.5319 53.3838C63.958 52.8724 63.9751 52.7872 63.9751 50.5713V48.2702L65.816 48.3213L67.6398 48.3724V54.8497V61.3269L61.0433 61.378L54.4297 61.4121V54.8497V48.2872H56.2194H58.0092V50.6054ZM62.2364 50.1963L62.1853 52.1224L61.0433 52.1735L59.8842 52.2247V50.2474V48.2872H61.0774H62.2876L62.2364 50.1963Z" fill="#CAAC8F"/>
<path d="M46.2836 50.707C45.9938 50.9968 46.0279 51.6275 46.3517 51.9343C46.5563 52.1388 46.9995 52.207 48.2779 52.207C49.6756 52.207 49.9994 52.1559 50.221 51.9002C50.5619 51.5252 50.596 50.9968 50.3063 50.707C50.1699 50.5707 49.471 50.5025 48.2949 50.5025C47.1188 50.5025 46.4199 50.5707 46.2836 50.707Z" fill="#CAAC8F"/>
<path d="M43.8643 54.253C43.6768 54.4405 43.5234 54.7133 43.5234 54.8496C43.5234 54.986 43.6768 55.2587 43.8643 55.4462C44.1712 55.753 44.4268 55.7871 46.9836 55.7871C50.0007 55.7871 50.512 55.6507 50.512 54.8496C50.512 54.0485 50.0007 53.9121 46.9836 53.9121C44.4268 53.9121 44.1712 53.9462 43.8643 54.253Z" fill="#CAAC8F"/>
<path d="M46.3897 57.6802C46.0317 57.8848 45.9806 58.6859 46.2874 58.9927C46.4238 59.1291 47.1226 59.1973 48.3328 59.1973C49.9692 59.1973 50.1737 59.1632 50.3442 58.8734C50.8896 57.8507 50.3783 57.4927 48.3328 57.4927C47.4294 57.4927 46.5431 57.578 46.3897 57.6802Z" fill="#CAAC8F"/>
</svg>
