<svg width="130" height="130" viewBox="0 0 130 130" fill="none" xmlns="http://www.w3.org/2000/svg">
<rect x="0.5" y="0.5" width="129" height="129" rx="64.5" stroke="#8D7547"/>
<path d="M43.0471 39.3653C41.6313 40.0647 40.9491 41.4804 40.9491 43.6979V44.7213H39.7209C38.0834 44.7213 37.3159 44.9601 36.4971 45.6935C35.5249 46.5635 35.0984 47.4846 35.0814 48.7127C35.0643 49.6508 35.0984 49.7532 35.5249 49.992C35.9342 50.2308 36.0025 50.2308 36.3265 49.9408C36.5483 49.7361 36.6847 49.412 36.6847 49.0879C36.6847 48.7809 36.8553 48.201 37.0771 47.7916C37.5717 46.7852 38.2881 46.427 39.8062 46.427H40.9491V47.3481C40.9491 49.6508 41.5631 50.9301 43.013 51.6806C44.5822 52.4994 46.6462 51.8512 47.5502 50.2649C47.8743 49.702 47.9425 49.3267 47.9425 47.9963V46.427H50.2452H52.548V47.8428C52.548 49.0197 52.6162 49.412 52.9744 50.1284C53.5543 51.2713 54.4754 51.9194 55.7035 52.0218C57.2558 52.1412 58.4327 51.493 59.115 50.1114C59.4732 49.412 59.5414 49.0197 59.5414 47.8428V46.41L61.81 46.4611L64.0616 46.5123L64.1469 48.1327C64.2151 49.1391 64.3516 49.9408 64.5221 50.2649C65.665 52.397 68.6841 52.6699 70.2534 50.7766C70.8504 50.0431 71.1403 48.9685 71.1403 47.4504V46.427H73.3578H75.5752V47.6551C75.5752 49.2414 75.797 50.0431 76.4622 50.7937C78.1338 52.687 81.0165 52.397 82.1763 50.1967C82.5004 49.5655 82.5687 49.1903 82.5687 47.928V46.427H83.7627C85.0761 46.427 85.639 46.6317 86.3213 47.3652C86.7477 47.8086 86.7477 47.8428 86.7989 51.3907L86.85 54.9556H61.7759H36.6847V53.6934C36.6847 52.7723 36.6165 52.3459 36.4118 52.1582C36.0536 51.8 35.6101 51.8171 35.2519 52.2094C34.9961 52.4994 34.979 53.7446 35.0131 68.3626L35.0643 84.2087L35.4396 84.9081C35.9172 85.7951 37.06 86.8014 37.8617 87.0232C38.254 87.1255 44.4117 87.1938 54.3901 87.1938H70.3216L71.0209 87.7737C72.2491 88.7801 74.0571 89.7353 75.7458 90.2811C77.0762 90.7246 77.7415 90.8269 79.4984 90.8952C82.8075 91.0487 85.2467 90.4346 87.9417 88.8142C89.0163 88.149 89.1357 88.0296 89.1869 87.4837C89.238 86.9891 89.1698 86.8526 88.8457 86.7503C88.2999 86.5626 88.1975 86.5968 86.9183 87.3814C84.2744 88.9848 80.7947 89.5988 77.7926 89.0018C72.8119 87.9954 69.1617 84.6011 67.6265 79.6033C67.2342 78.3069 67.1831 74.6055 67.5413 73.2068C68.4794 69.5395 71.1062 66.2475 74.4153 64.6271C76.4622 63.6207 77.912 63.2795 80.2659 63.2625C86.6795 63.2284 91.9331 67.7315 93.093 74.2303C93.6559 77.4029 92.8542 80.7632 90.8244 83.7823C90.108 84.8569 90.0397 85.0275 90.2103 85.4028C90.3638 85.7268 90.5344 85.8292 90.9267 85.8292C91.3361 85.8292 91.5749 85.6586 92.1378 84.9251C94.2358 82.2983 95.4128 77.727 94.8669 74.2303C94.304 70.6653 92.9053 68.0044 90.2444 65.4799L88.7263 64.0301L88.6752 55.962L88.624 47.8769L88.2317 47.1093C87.3276 45.3865 86.1507 44.7213 83.9844 44.7213H82.5687V43.2714C82.5687 41.1222 82.0399 40.0817 80.6071 39.4165C78.9867 38.666 77.0933 39.2118 76.1722 40.6958C75.7287 41.4122 75.6605 41.7022 75.6093 43.1179L75.5411 44.7213H73.3407H71.1403V43.6979C71.1403 41.4975 70.4239 40.0305 69.0252 39.3653C68.2747 39.0071 66.8419 39.0071 66.1426 39.3653C64.6927 40.0988 64.2663 40.9005 64.1469 43.0156L64.0616 44.636L61.81 44.6872L59.5755 44.7383L59.5073 43.152C59.4391 41.2587 59.0979 40.457 58.0233 39.6894C57.4604 39.2971 57.0852 39.1777 56.2494 39.1265C54.936 39.0583 53.8955 39.5359 53.145 40.6105C52.6844 41.2587 52.6332 41.4634 52.5821 43.0326L52.5138 44.7383L50.2623 44.6872L48.0278 44.636L47.9425 43.0156C47.8572 41.3098 47.6355 40.6958 46.885 39.9964C45.9468 39.1265 44.1388 38.8365 43.0471 39.3653ZM45.3669 41.0369C46.1515 41.4463 46.2368 41.8898 46.2368 45.6594V49.122L45.7933 49.6508C45.2475 50.299 44.4287 50.4866 43.7123 50.1114C43.4223 49.9579 43.0983 49.6849 42.9959 49.5144C42.8936 49.3097 42.8253 47.6892 42.8253 45.4889V41.7874L43.32 41.2928C43.8829 40.7299 44.5993 40.6446 45.3669 41.0369ZM57.1875 41.2928L57.7504 41.7874L57.8016 45.2671C57.8357 48.3204 57.8186 48.798 57.5457 49.3267C56.9146 50.5549 55.4136 50.6572 54.6289 49.4973C54.2366 48.9174 54.2366 48.8321 54.2878 45.3524L54.339 41.7874L54.9019 41.2928C55.6524 40.6276 56.437 40.6276 57.1875 41.2928ZM68.7353 41.2928L69.264 41.7874V45.523C69.264 48.7809 69.2129 49.2926 68.957 49.5996C68.2235 50.5207 67.0466 50.5378 66.2961 49.6508L65.8526 49.122V45.6083C65.8696 41.8386 65.9379 41.4804 66.7225 41.0369C67.4219 40.6446 68.1553 40.747 68.7353 41.2928ZM80.3001 41.3951L80.88 41.9751L80.8288 45.6424L80.7777 49.3267L80.3342 49.7532C79.379 50.7084 77.8268 50.3331 77.4686 49.0368C77.2298 48.201 77.2298 42.9644 77.4515 42.1286C77.6732 41.3269 78.3385 40.7981 79.1061 40.7981C79.5666 40.7981 79.8395 40.9346 80.3001 41.3951ZM45.3839 61.0109V65.1899H41.0343H36.6847V61.0109V56.8319H41.0343H45.3839V61.0109ZM55.7888 61.0109V65.1899H51.4392H47.0897V61.0109V56.8319H51.4392H55.7888V61.0109ZM66.1596 60.9598L66.1084 65.1047L61.81 65.1558L57.4946 65.1899V61.0109V56.8319H61.8441H66.1937L66.1596 60.9598ZM76.4281 59.3564V61.8979L74.9611 62.4437C74.1083 62.7678 72.7949 63.4842 71.8738 64.0983C70.2875 65.1729 70.2534 65.1899 69.0764 65.1899H67.8995V61.0109V56.8319H72.1638H76.4281V59.3564ZM86.833 59.9022V62.9725L86.2019 62.6996C84.1891 61.8297 81.784 61.3691 79.7031 61.4544L78.3044 61.5226V59.1858V56.8319H82.5687H86.833V59.9022ZM45.3839 71.0747V75.2537H41.0343H36.6847V71.0747V66.8957H41.0343H45.3839V71.0747ZM55.7888 71.0747V75.2537H51.4392H47.0897V71.0747V66.8957H51.4392H55.7888V71.0747ZM66.1596 69.2325C66.1937 70.8188 66.1255 71.7911 65.9549 72.4734C65.8185 73.0192 65.6479 73.8721 65.5797 74.3497L65.4603 75.2537H61.4859H57.4946V71.0747V66.8957L61.81 66.9298L66.1084 66.981L66.1596 69.2325ZM68.5817 67.0151C68.5817 67.1004 68.4282 67.3392 68.2406 67.578L67.8995 68.0044V67.4415C67.8995 67.0151 67.9677 66.8957 68.2406 66.8957C68.4282 66.8957 68.5817 66.9468 68.5817 67.0151ZM45.3839 81.309V85.488H42.0066C38.0834 85.488 37.7252 85.3857 37.0771 84.1235C36.7189 83.4241 36.6847 83.1512 36.6847 80.2515V77.13H41.0343H45.3839V81.309ZM55.7888 81.309V85.488H51.4392H47.0897V81.309V77.13H51.4392H55.7888V81.309ZM65.5114 77.6758C65.5285 79.4327 66.7055 82.6736 68.0018 84.5158C68.3259 84.9593 68.5817 85.3516 68.5817 85.4028C68.5817 85.4539 66.0914 85.488 63.0382 85.488H57.4946V81.309V77.13H61.503H65.5114V77.6758Z" fill="#CAAC8F"/>
<path d="M77.5226 65.6852C76.158 66.0604 74.9981 66.6063 73.9235 67.3909C73.0536 68.022 72.9513 68.602 73.6165 69.0454C74.0259 69.3184 74.077 69.3013 75.2028 68.619C76.755 67.6809 78.0514 67.2374 79.6377 67.135C83.6973 66.828 87.5352 69.4036 88.8998 73.378C89.4456 74.9643 89.4626 77.4547 88.9168 79.041C87.8763 82.0601 85.4542 84.2946 82.3498 85.0792C80.9511 85.4374 78.5972 85.3351 77.1985 84.8234C71.979 82.9641 69.6422 77.0112 72.1666 71.9963C72.7295 70.9047 72.7295 70.4271 72.1666 70.1371C71.5355 69.796 71.075 70.1883 70.4268 71.6211C68.4823 75.9024 69.2669 80.525 72.5078 83.7999C74.7081 86.0344 77.0791 87.0408 80.1153 87.0408C83.1856 87.0579 85.7783 86.0174 87.8422 83.9705C89.8891 81.9236 90.8955 79.655 91.049 76.7724C91.2195 73.7703 90.2643 71.1264 88.2516 68.9431C86.9041 67.4932 85.6759 66.6745 83.8849 66.0093C82.0086 65.3099 79.3648 65.1905 77.5226 65.6852Z" fill="#CAAC8F"/>
<path d="M79.6181 70.1026C79.3622 70.3756 79.3281 70.9043 79.3281 74.0429C79.3281 76.2091 79.3964 77.7954 79.4987 78.0001C79.6693 78.3072 79.9081 78.3242 83.6777 78.3242C87.4474 78.3242 87.6862 78.3072 87.8567 78.0001C88.0955 77.5225 88.0785 77.352 87.6862 76.9596C87.3621 76.6356 87.1233 76.6185 84.1894 76.6185H81.0338V73.4117C81.0338 71.1431 80.9656 70.1368 80.8292 70.0003C80.5221 69.6933 79.9251 69.7444 79.6181 70.1026Z" fill="#CAAC8F"/>
</svg>
