<svg width="130" height="130" viewBox="0 0 130 130" fill="none" xmlns="http://www.w3.org/2000/svg">
<rect x="0.5" y="0.5" width="129" height="129" rx="64.5" stroke="#8D7547"/>
<path d="M50.6521 35.1058C49.3708 35.4987 48.3288 36.4383 47.765 37.6854C47.4233 38.4371 47.4062 38.7616 47.4062 50.6175V62.7979L47.8333 63.0712C48.2263 63.3275 48.2946 63.3275 48.6875 63.0712L49.1146 62.7979V50.8737V38.9496L49.5075 38.1979C49.7808 37.6341 50.0883 37.3266 50.6521 37.0362C51.3354 36.6946 51.66 36.6604 53.9321 36.6604C57.0242 36.6604 57.2463 36.7458 59.04 38.4541C60.7825 40.1112 61.2096 40.2479 65.0021 40.2479C68.7946 40.2479 69.2217 40.1112 70.9642 38.4541C72.7579 36.7458 72.98 36.6604 76.0721 36.6604C78.3442 36.6604 78.6688 36.6946 79.3521 37.0362C79.9158 37.3266 80.2233 37.6341 80.5138 38.1979L80.8896 38.9496V63.5154V88.0812H65.0021H49.1146V76.8233C49.1146 66.8125 49.0804 65.5312 48.8413 65.2921C48.4996 64.9504 48.0213 64.9504 47.6796 65.2921C47.4404 65.5312 47.4062 66.9662 47.4062 78.5658C47.4062 91.2929 47.4233 91.6004 47.765 92.3521C48.1921 93.2917 48.9779 94.1458 49.8833 94.6242L50.5667 95H65.0021H79.4375L80.1208 94.6242C81.0263 94.1458 81.8121 93.2917 82.2392 92.3521C82.5808 91.5833 82.5979 91.3612 82.5979 65.0187C82.5979 38.6762 82.5808 38.4541 82.2392 37.6854C81.8121 36.7458 81.0263 35.8916 80.1208 35.4133L79.4375 35.0375L65.2583 35.0033C57.4683 34.9862 50.8913 35.0375 50.6521 35.1058ZM69.4438 37.4291C69.0167 37.8562 68.4188 38.2833 68.0771 38.3687C67.7525 38.4541 66.3688 38.5396 65.0021 38.5396C63.6354 38.5396 62.2517 38.4541 61.9271 38.3687C61.5854 38.2833 60.9875 37.8562 60.5604 37.4291L59.8088 36.6604H65.0021H70.1954L69.4438 37.4291ZM80.8896 90.4387C80.8896 91.4808 80.2404 92.54 79.3521 92.9842L78.6004 93.3771H65.0021H51.4038L50.6521 92.9842C49.7638 92.54 49.1146 91.4808 49.1146 90.4387V89.7896H65.0021H80.8896V90.4387Z" fill="#CAAC8F"/>
<path fill-rule="evenodd" clip-rule="evenodd" d="M74.9998 62.6092H73.0466C72.6063 62.6092 72.1994 62.7169 71.8325 62.9289V62.5H70.7718V68.5H72.8775C72.6115 68.5 72.3835 68.4186 72.1873 68.2553C71.9889 68.0898 71.8729 67.889 71.8325 67.6537V64.7068C71.8325 64.4015 71.9514 64.1379 72.1873 63.9134C72.4256 63.6939 72.7119 63.5871 73.0466 63.5871H73.9544C74.2382 63.5941 74.4846 63.6915 74.6907 63.8812C74.8967 64.0718 75 64.3006 75 64.5695V62.6092H74.9998ZM68.5223 68.4936H69.8039C69.5379 68.4936 69.3089 68.4117 69.1102 68.2483C68.914 68.0877 68.798 67.8868 68.7657 67.6464V62.5321H67.7051V62.9637C67.3411 62.749 66.941 62.6419 66.5037 62.6419H64.7144C64.0911 62.6419 63.558 62.8476 63.1177 63.2579C62.6758 63.6681 62.454 64.1632 62.454 64.7416V66.403C62.454 66.982 62.6756 67.4759 63.1177 67.8839C63.558 68.2953 64.0911 68.4998 64.7144 68.4998H66.5037C66.941 68.4998 67.3411 68.3933 67.7051 68.1783V68.4932H68.5223V68.4936ZM64.7146 67.5225C64.3828 67.5225 64.0961 67.4132 63.8622 67.1942C63.6263 66.9768 63.508 66.7115 63.508 66.403V64.7416C63.508 64.4315 63.6263 64.1678 63.8622 63.9488C64.0959 63.7292 64.3826 63.6194 64.7146 63.6194H66.5039C66.8379 63.6194 67.1224 63.7292 67.3586 63.9488C67.5645 64.1394 67.6799 64.3662 67.7053 64.6254V66.5387C67.6701 66.7947 67.5547 67.0121 67.3586 67.1944C67.1226 67.4134 66.8381 67.5226 66.5039 67.5226H64.7146V67.5225ZM57.1864 67.5155L61.3342 62.6488H57.7825V62.6419H56.0082C55.985 62.6419 55.955 62.644 55.9199 62.6488H55.0075V63.6264H55.015V64.59C55.015 64.3501 55.1027 64.1379 55.2786 63.9558C55.4523 63.7737 55.6654 63.6639 55.9196 63.6264H59.1896L55.0075 68.4861L55 68.4936H58.5488V68.5H60.3238C60.3688 68.5 60.4115 68.4985 60.4564 68.4936H61.319V67.5155L61.3265 66.5524C61.3213 66.7945 61.2307 67.0046 61.06 67.1867C60.8931 67.3661 60.6849 67.4759 60.4339 67.5155H57.1864Z" fill="#CAAC8F"/>
</svg>
