<svg width="150" height="60" viewBox="0 0 150 60" fill="none" xmlns="http://www.w3.org/2000/svg">
<g clip-path="url(#clip0_1_373)">
<path fill-rule="evenodd" clip-rule="evenodd" d="M150 0.878374H135.35C132.046 0.878374 128.998 1.74498 126.245 3.45468V0H118.289V48.338H134.08C132.086 48.338 130.375 47.6832 128.904 46.3656C127.417 45.0324 126.544 43.4128 126.241 41.5189V17.7792C126.241 15.3206 127.134 13.1952 128.904 11.3875C130.693 9.61898 132.837 8.76021 135.35 8.76021H142.158C144.286 8.81511 146.134 9.60329 147.68 11.1287C149.225 12.6658 150 14.5089 150 16.6734V0.878374Z" fill="#D0B480"/>
<path fill-rule="evenodd" clip-rule="evenodd" d="M101.417 48.287H111.029C109.035 48.287 107.316 47.6283 105.826 46.3107C104.355 45.0167 103.486 43.3972 103.242 41.46V0H95.2858V3.73701C92.5564 2.00771 89.5556 1.14502 86.2756 1.14502H72.8566C68.1843 1.14502 64.1846 2.80374 60.881 6.10548C57.5655 9.41115 55.9059 13.3991 55.9059 18.0576V31.4411C55.9059 36.1074 57.5695 40.0837 60.881 43.3736C64.1846 46.6871 68.1804 48.3341 72.8566 48.3341H86.2756C89.5556 48.3341 92.5564 47.4753 95.2858 45.746V48.2831H101.413L101.417 48.287ZM72.8605 40.464C70.371 40.464 68.2197 39.5857 66.4696 37.8171C64.6998 36.0643 63.811 33.9311 63.811 31.445V18.0616C63.811 15.5637 64.6998 13.4383 66.4696 11.6737C68.2236 9.90524 70.3749 9.01902 72.8605 9.01902H86.2795C88.7847 9.01902 90.9203 9.90524 92.6901 11.6737C94.2357 13.2109 95.1009 15.0343 95.2897 17.1244V32.5391C95.0262 34.6017 94.161 36.3545 92.6901 37.8211C90.9203 39.5856 88.7847 40.4679 86.2795 40.4679H72.8605V40.464Z" fill="#D0B480"/>
<path fill-rule="evenodd" clip-rule="evenodd" d="M16.4001 40.4052L47.5092 1.19992H20.8718V1.14502H7.56293C7.38988 1.14502 7.16571 1.1607 6.9022 1.19992H0V16.8381C0 14.9049 0.770844 13.1952 2.09229 11.7286C3.39407 10.2621 4.99082 9.37585 6.9022 9.07391H31.4276L0.0589932 48.2243L0.00393288 48.2831H26.6217V48.3341H39.9345C40.2727 48.3341 40.5912 48.3223 40.9295 48.2831H47.3991V40.4052L47.4541 32.6449C47.4148 34.5938 46.7344 36.2878 45.4562 37.7544C44.2056 39.2014 42.6442 40.0837 40.7604 40.4052H16.404H16.4001Z" fill="#D0B480"/>
<path d="M0.967495 53.9221C0.967495 53.0986 0.9203 52.8908 0.420824 52.8437L0.0629325 52.8123C-0.0275237 52.7417 -0.0157251 52.5731 0.0747311 52.53C0.676462 52.4751 1.43551 52.4437 2.47379 52.4437C3.17777 52.4437 3.8503 52.4986 4.34584 52.7535C4.82958 52.9809 5.19927 53.4358 5.19927 54.1417C5.19927 54.9455 4.72733 55.3494 4.06267 55.671C4.06267 55.7768 4.14919 55.8161 4.27111 55.8357C4.87678 55.9494 5.77347 56.5062 5.77347 57.6944C5.77347 58.9845 4.80992 59.8511 2.80022 59.8511C2.47379 59.8511 1.93105 59.8197 1.4591 59.8197C0.987159 59.8197 0.589938 59.8432 0.176986 59.8511C0.106194 59.8197 0.0865298 59.6393 0.149456 59.5805L0.357898 59.5452C0.943897 59.4472 0.967495 59.3217 0.967495 58.1532V53.9181V53.9221ZM1.87992 55.4043C1.87992 55.7141 1.89172 55.7376 2.46592 55.7141C3.60252 55.671 4.21999 55.3337 4.21999 54.2907C4.21999 53.1927 3.40195 52.7888 2.55638 52.7888C2.30861 52.7888 2.13949 52.8123 2.03724 52.8555C1.92712 52.8908 1.87992 52.9457 1.87992 53.1456V55.4082V55.4043ZM1.87992 57.9885C1.87992 58.3845 1.89959 58.9492 2.11983 59.2001C2.32827 59.455 2.6665 59.5099 2.99686 59.5099C3.99188 59.5099 4.75092 59.0668 4.75092 57.9532C4.75092 57.0748 4.30651 56.0513 2.52885 56.0513C1.92712 56.0513 1.87992 56.118 1.87992 56.3415V57.9885Z" fill="#D0B480"/>
<path d="M9.72601 54.1456C9.72601 52.9849 9.70241 52.8241 9.04562 52.7417L8.86864 52.7221C8.79785 52.679 8.82538 52.4751 8.88831 52.4476C9.36812 52.4672 9.74568 52.479 10.2058 52.479H12.306C13.0218 52.479 13.6786 52.479 13.8123 52.4476C13.8831 52.6319 13.946 53.4397 13.9932 53.922C13.946 53.9926 13.7651 54.0162 13.71 53.9495C13.5448 53.428 13.4426 53.0358 12.8605 52.8907C12.6285 52.8358 12.2667 52.8241 11.775 52.8241H10.9727C10.6384 52.8241 10.6384 52.8398 10.6384 53.2633V55.4945C10.6384 55.8043 10.6699 55.8043 11.0081 55.8043H11.6571C12.1251 55.8043 12.4712 55.7768 12.6049 55.7337C12.7386 55.6906 12.8173 55.6278 12.8723 55.3416L12.9628 54.8867C13.0139 54.82 13.2066 54.82 13.2538 54.8985C13.2538 55.1651 13.2066 55.5964 13.2066 56.0239C13.2066 56.4199 13.2538 56.8434 13.2538 57.0905C13.2066 57.1728 13.0139 57.1728 12.9628 57.1022L12.8605 56.667C12.8173 56.4631 12.7386 56.2984 12.5144 56.2435C12.3571 56.2003 12.0897 56.1886 11.6571 56.1886H11.0081C10.6699 56.1886 10.6384 56.2003 10.6384 56.4905V58.0551C10.6384 58.6472 10.6699 59.0276 10.8508 59.2158C10.9845 59.3491 11.2205 59.4707 12.1998 59.4707C13.0572 59.4707 13.3875 59.4276 13.6274 59.3021C13.828 59.1962 14.1308 58.8002 14.4179 58.2237C14.4966 58.1688 14.65 58.2002 14.6972 58.3021C14.6185 58.6904 14.3393 59.5491 14.1938 59.8471C13.1909 59.8236 12.1959 59.8158 11.2048 59.8158H10.198C9.71815 59.8158 9.34059 59.8236 8.67987 59.8471C8.61301 59.8158 8.59334 59.6354 8.6602 59.5766L9.02989 59.5413C9.66702 59.4825 9.72208 59.3178 9.72208 58.1492V54.1416L9.72601 54.1456Z" fill="#D0B480"/>
<path d="M21.3673 57.2394C21.2887 56.9963 21.2454 56.9649 20.9072 56.9649H19.22C18.9447 56.9649 18.8739 57.0002 18.7992 57.2316L18.4059 58.4001C18.2407 58.9021 18.162 59.204 18.162 59.3256C18.162 59.4589 18.2171 59.5256 18.4885 59.5491L18.8582 59.5844C18.9368 59.6354 18.9368 59.8118 18.8346 59.855C18.5396 59.8314 18.1935 59.8314 17.6704 59.8236C17.3007 59.8236 16.8996 59.8471 16.6007 59.855C16.5299 59.8118 16.5102 59.6354 16.5771 59.5844L16.9468 59.5491C17.2142 59.5216 17.4581 59.4001 17.6114 59.0001C17.8159 58.4903 18.1266 57.7649 18.5947 56.5179L19.7352 53.5103C19.8886 53.1103 19.9554 52.8985 19.92 52.7221C20.1875 52.6437 20.3802 52.4476 20.4982 52.2986C20.569 52.2986 20.6437 52.326 20.6673 52.3966C20.8128 52.8868 20.9937 53.4005 21.1589 53.8906L22.6848 58.3649C23.0113 59.3217 23.1568 59.4864 23.6327 59.5452L23.9355 59.5805C24.0142 59.6314 23.9906 59.8079 23.9355 59.851C23.4754 59.8275 23.086 59.8197 22.5865 59.8197C22.0517 59.8197 21.6269 59.8432 21.3005 59.851C21.214 59.8079 21.2022 59.6314 21.2769 59.5805L21.6033 59.5452C21.8353 59.5177 21.9927 59.455 21.9927 59.3413C21.9927 59.2197 21.9376 59.0158 21.8511 58.7491L21.3595 57.2355L21.3673 57.2394ZM19.1571 56.2513C19.0705 56.5062 19.0784 56.5179 19.3891 56.5179H20.7656C21.092 56.5179 21.1117 56.4709 21.0134 56.1728L20.4077 54.3573C20.3212 54.0945 20.2229 53.7926 20.1521 53.6593H20.1285C20.0931 53.7103 19.9869 53.9847 19.861 54.3141L19.1571 56.2513Z" fill="#D0B480"/>
<path d="M32.3165 55.271C32.3165 54.5769 32.2929 53.3025 32.1041 52.9652C32.0254 52.8319 31.8288 52.7535 31.5456 52.7339L31.2664 52.7143C31.1995 52.6319 31.2271 52.4868 31.2939 52.4476C31.7187 52.4672 32.1277 52.479 32.5682 52.479C33.0362 52.479 33.339 52.4712 33.7402 52.4476C33.8267 52.5025 33.8188 52.6476 33.7638 52.7143L33.4963 52.7339C33.2132 52.7574 33.0047 52.8554 32.9379 53.0005C32.7806 53.3691 32.7806 54.6475 32.7806 55.271V56.5258C32.7806 57.4983 32.6193 58.5178 31.9979 59.1884C31.5181 59.7099 30.6922 60.0001 29.8624 60.0001C29.0954 60.0001 28.3246 59.855 27.7779 59.3844C27.188 58.9021 26.9088 58.0904 26.9088 56.7611V54.1338C26.9088 52.977 26.8891 52.7927 26.2362 52.7339L25.9609 52.7143C25.8901 52.6672 25.9137 52.4751 25.9845 52.4476C26.5391 52.4672 26.9206 52.479 27.3689 52.479C27.8173 52.479 28.1909 52.4712 28.7376 52.4476C28.8083 52.479 28.828 52.6672 28.7651 52.7143L28.4976 52.7339C27.8487 52.7888 27.8251 52.977 27.8251 54.1338V56.5415C27.8251 58.3335 28.3836 59.5138 30.0944 59.5138C31.7147 59.5138 32.3283 58.2394 32.3283 56.5493V55.271H32.3165Z" fill="#D0B480"/>
<path d="M40.0092 58.1531C40.0092 59.3217 40.0249 59.4863 40.6738 59.5452L41.0317 59.5805C41.0986 59.6236 41.075 59.8236 41.0081 59.851C40.371 59.8275 39.9895 59.8197 39.5412 59.8197C39.0928 59.8197 38.7074 59.8275 37.9916 59.851C37.9248 59.8197 37.9012 59.6314 37.9916 59.5805L38.3928 59.5452C39.0299 59.4863 39.085 59.3217 39.085 58.1531V53.1809C39.085 52.8319 39.085 52.824 38.7467 52.824H38.1332C37.6534 52.824 37.0399 52.8397 36.7606 53.0946C36.4932 53.3416 36.3831 53.5848 36.2612 53.8632C36.1668 53.9338 36.0094 53.8789 35.9662 53.7887C36.1432 53.2867 36.3123 52.5731 36.3909 52.126C36.4263 52.1025 36.5679 52.0947 36.6033 52.126C36.6702 52.479 37.0359 52.4711 37.5511 52.4711H42.074C42.6757 52.4711 42.774 52.4515 42.947 52.1613C43.0021 52.1417 43.124 52.1496 43.1476 52.1966C43.0257 52.6515 42.947 53.5573 42.9785 53.8867C42.9352 53.9769 42.7386 53.9769 42.6875 53.9063C42.6521 53.6318 42.5734 53.2201 42.4043 53.0907C42.1487 52.9064 41.7239 52.8201 41.1104 52.8201H40.3199C39.9856 52.8201 40.0013 52.828 40.0013 53.1926V58.1492L40.0092 58.1531Z" fill="#D0B480"/>
<path d="M49.1571 58.1335C49.1571 59.3256 49.2239 59.506 49.8296 59.5491L50.2543 59.5844C50.3212 59.6432 50.2976 59.8275 50.2268 59.855C49.5346 59.8315 49.1571 59.8236 48.7126 59.8236C48.2682 59.8236 47.8435 59.8315 47.2496 59.855C47.1788 59.8236 47.1592 59.6432 47.226 59.5844L47.5721 59.5491C48.2171 59.4785 48.2446 59.3256 48.2446 58.1335V57.5689C48.2446 56.9532 48.2092 56.8042 47.8867 56.1846L46.5692 53.624C46.1838 52.8907 46.0186 52.8358 45.6804 52.777L45.3697 52.7221C45.3028 52.6437 45.3146 52.4829 45.3933 52.4476C45.7512 52.4672 46.1563 52.479 46.6911 52.479C47.226 52.479 47.6036 52.4712 47.8867 52.4476C47.9851 52.479 47.9851 52.6555 47.9182 52.7221L47.7766 52.7417C47.3873 52.7966 47.3086 52.8555 47.3086 52.9456C47.3086 53.0594 47.5996 53.6907 47.6547 53.8044C48.0677 54.624 48.4806 55.4984 48.9132 56.2709C49.2593 55.6788 49.629 55.0357 49.9594 54.3887C50.274 53.8122 50.687 53.0554 50.687 52.9182C50.687 52.8515 50.4864 52.777 50.2189 52.7417L50.0144 52.7221C49.9358 52.6437 49.9436 52.4829 50.038 52.4476C50.4392 52.4672 50.7656 52.479 51.1117 52.479C51.4578 52.479 51.7685 52.4712 52.15 52.4476C52.2404 52.5025 52.2483 52.6555 52.1736 52.7221L51.8629 52.777C51.2808 52.8751 50.9505 53.5809 50.392 54.5338L49.688 55.7494C49.2003 56.5964 49.1649 56.6944 49.1649 57.5532V58.1296L49.1571 58.1335Z" fill="#D0B480"/>
<path d="M59.1308 56.2238C59.1308 53.9965 60.8062 52.2986 63.103 52.2986C65.683 52.2986 66.9769 54.1534 66.9769 56.1179C66.9769 58.3649 65.2583 60 63.103 60C60.6293 60 59.1308 58.2315 59.1308 56.2238ZM65.8679 56.463C65.8679 54.6239 65.0498 52.6437 62.9182 52.6437C61.758 52.6437 60.2517 53.4358 60.2517 55.8748C60.2517 57.5179 61.054 59.655 63.2564 59.655C64.5936 59.655 65.8718 58.655 65.8718 56.463H65.8679Z" fill="#D0B480"/>
<path d="M71.8419 55.6161C71.8419 55.9141 71.8773 55.9141 72.2116 55.9141H72.9706C73.4347 55.9141 73.7887 55.8905 73.9224 55.8474C74.0443 55.8043 74.1387 55.7494 74.2016 55.4553L74.296 55.0122C74.355 54.9455 74.5477 54.9455 74.591 55.0122C74.591 55.2788 74.5477 55.7298 74.5477 56.1376C74.5477 56.5454 74.591 56.9611 74.591 57.2199C74.5477 57.2865 74.3786 57.2865 74.296 57.2199L74.1898 56.7807C74.1387 56.5807 74.0443 56.4278 73.8319 56.3572C73.6746 56.314 73.3954 56.3062 72.9706 56.3062H72.2116C71.8773 56.3062 71.8419 56.314 71.8419 56.6081V58.1531C71.8419 59.3217 71.8694 59.4864 72.5223 59.5452L72.9038 59.5805C72.9706 59.6236 72.951 59.8236 72.8802 59.8511C72.2234 59.8275 71.8419 59.8197 71.3975 59.8197C70.9059 59.8197 70.5283 59.8275 70.0052 59.8511C69.9344 59.8197 69.9148 59.6393 69.9777 59.5805L70.2609 59.5452C70.9059 59.4668 70.9334 59.3217 70.9334 58.1531V54.1456C70.9334 52.977 70.9059 52.8241 70.2609 52.7417L70.0839 52.7221C70.017 52.679 70.0367 52.4751 70.1036 52.4476C70.5716 52.4672 70.9531 52.479 71.3975 52.479H73.4544C74.1662 52.479 74.8152 52.479 74.9607 52.4476C74.9607 52.9613 74.9685 53.4907 74.9961 53.9142C74.9607 53.9848 74.8073 54.0162 74.7247 53.9495C74.6382 53.4476 74.5045 53.0358 73.946 52.8907C73.6982 52.8241 73.3325 52.8241 72.8644 52.8241H72.1841C71.8458 52.8241 71.8458 52.8398 71.8458 53.2633V55.6161H71.8419Z" fill="#D0B480"/>
<path d="M83.7389 53.9221C83.7389 53.1456 83.6838 52.9143 83.2158 52.8437L82.968 52.8123C82.8776 52.7574 82.8697 52.5731 82.9798 52.53C83.9276 52.4751 84.8322 52.4437 85.78 52.4437C86.7279 52.4437 87.5105 52.5104 88.2341 52.777C89.7444 53.3221 90.5034 54.5887 90.5034 56.0592C90.5034 57.5297 89.827 58.6865 88.5527 59.3766C87.8251 59.7648 86.9088 59.906 86.0475 59.906C85.3317 59.906 84.6238 59.8197 84.2344 59.8197C83.7625 59.8197 83.3613 59.8276 82.8382 59.8511C82.7714 59.8197 82.7517 59.6393 82.8186 59.5805L83.0742 59.5452C83.7231 59.455 83.7467 59.3217 83.7467 58.1532V53.9181L83.7389 53.9221ZM84.6592 57.8943C84.6592 58.4904 84.6906 58.8433 84.8794 59.11C85.1272 59.455 85.5519 59.5609 86.2559 59.5609C88.419 59.5609 89.3904 58.1492 89.3904 56.0827C89.3904 54.8553 88.8005 52.7849 85.8744 52.7849C85.2137 52.7849 84.8519 52.8711 84.7653 52.9417C84.6749 53.0084 84.6592 53.2868 84.6592 53.7887V57.8943Z" fill="#D0B480"/>
<path d="M94.452 54.1456C94.452 52.9849 94.4363 52.8241 93.7716 52.7417L93.5947 52.7221C93.5199 52.679 93.5514 52.4751 93.6183 52.4476C94.0981 52.4672 94.4796 52.479 94.9397 52.479H97.0359C97.7556 52.479 98.4124 52.479 98.5462 52.4476C98.617 52.6319 98.6799 53.4397 98.7192 53.922C98.6799 53.9926 98.499 54.0162 98.4439 53.9495C98.2787 53.428 98.1765 53.0358 97.5944 52.8907C97.3624 52.8358 97.0045 52.8241 96.5129 52.8241H95.7066C95.3723 52.8241 95.3723 52.8398 95.3723 53.2633V55.4945C95.3723 55.8043 95.4077 55.8043 95.7459 55.8043H96.387C96.859 55.8043 97.205 55.7768 97.3388 55.7337C97.4725 55.6906 97.5511 55.6278 97.6062 55.3416L97.6927 54.8867C97.7517 54.82 97.9405 54.82 97.9877 54.8985C97.9877 55.1651 97.9405 55.5964 97.9405 56.0239C97.9405 56.4199 97.9877 56.8434 97.9877 57.0905C97.9405 57.1728 97.7556 57.1728 97.6927 57.1022L97.5944 56.667C97.5511 56.4631 97.4725 56.2984 97.2522 56.2435C97.091 56.2003 96.8236 56.1886 96.387 56.1886H95.7459C95.4077 56.1886 95.3723 56.2003 95.3723 56.4905V58.0551C95.3723 58.6472 95.4077 59.0276 95.5847 59.2158C95.7184 59.3491 95.9544 59.4707 96.9376 59.4707C97.795 59.4707 98.1175 59.4276 98.3613 59.3021C98.5658 59.1962 98.8687 58.8002 99.1518 58.2237C99.2344 58.1688 99.3917 58.2002 99.435 58.3021C99.3563 58.6904 99.081 59.5491 98.9316 59.8471C97.9287 59.8236 96.9376 59.8158 95.9347 59.8158H94.9358C94.452 59.8158 94.0745 59.8236 93.4177 59.8471C93.3469 59.8158 93.3272 59.6354 93.3902 59.5766L93.7638 59.5413C94.397 59.4825 94.452 59.3178 94.452 58.1492V54.1416V54.1456Z" fill="#D0B480"/>
<path d="M104.052 60.0001C103.116 60.0001 102.526 59.7099 102.314 59.5883C102.18 59.3413 102.039 58.5531 102.011 58.0316C102.066 57.9531 102.235 57.9296 102.278 57.9963C102.448 58.5649 102.908 59.655 104.202 59.655C105.138 59.655 105.598 59.0433 105.598 58.3727C105.598 57.8865 105.492 57.3375 104.681 56.8199L103.62 56.1297C103.061 55.7572 102.412 55.1259 102.412 54.2122C102.412 53.1534 103.238 52.2947 104.693 52.2947C105.035 52.2947 105.437 52.3613 105.732 52.4398C105.873 52.479 106.03 52.5064 106.117 52.5064C106.215 52.7731 106.321 53.4005 106.321 53.8632C106.278 53.9338 106.097 53.9652 106.038 53.8985C105.897 53.3691 105.598 52.6437 104.524 52.6437C103.45 52.6437 103.195 53.3691 103.195 53.8828C103.195 54.5259 103.726 54.9925 104.143 55.2474L105.035 55.8082C105.739 56.2395 106.432 56.8826 106.432 57.9453C106.432 59.1648 105.499 60.004 104.052 60.004V60.0001Z" fill="#D0B480"/>
<path d="M110.447 54.1691C110.447 52.9848 110.423 52.8005 109.767 52.7456L109.487 52.726C109.417 52.6829 109.444 52.479 109.515 52.4515C110.069 52.4711 110.451 52.4829 110.923 52.4829C111.363 52.4829 111.745 52.4751 112.303 52.4515C112.37 52.4829 112.394 52.6829 112.327 52.726L112.052 52.7456C111.391 52.8005 111.367 52.9888 111.367 54.1691V58.1335C111.367 59.3099 111.387 59.4707 112.052 59.5491L112.327 59.5844C112.398 59.6275 112.37 59.8275 112.303 59.855C111.745 59.8315 111.363 59.8236 110.923 59.8236C110.451 59.8236 110.069 59.8315 109.515 59.855C109.444 59.8236 109.421 59.6432 109.487 59.5844L109.767 59.5491C110.423 59.4707 110.447 59.3099 110.447 58.1335V54.1691Z" fill="#D0B480"/>
<path d="M122.033 58.6903C122.033 59.1334 122.1 59.4001 122.301 59.4785C122.332 59.5138 122.332 59.5805 122.289 59.6118C122.159 59.6118 121.955 59.655 121.742 59.7099C121.148 59.8667 120.346 60 119.744 60C118.415 60 117.2 59.6314 116.338 58.7609C115.666 58.0982 115.312 57.2198 115.312 56.2356C115.312 55.2513 115.623 54.3337 116.315 53.6005C117.062 52.824 118.167 52.2986 119.854 52.2986C120.492 52.2986 121.082 52.4201 121.27 52.4672C121.487 52.5103 121.833 52.5888 121.966 52.5652C121.966 52.9338 122.033 53.5103 122.132 54.1808C122.096 54.271 121.9 54.2788 121.833 54.2161C121.518 53.0123 120.68 52.6319 119.54 52.6319C117.377 52.6319 116.429 54.169 116.429 55.8395C116.429 57.9766 117.538 59.6589 119.78 59.6589C120.472 59.6589 120.885 59.5177 121.011 59.3256C121.062 59.2432 121.125 59.0432 121.125 58.6903V58.2433C121.125 57.31 121.089 57.2434 120.397 57.1649L119.906 57.114C119.815 57.0669 119.831 56.863 119.906 56.8316C120.232 56.8551 120.846 56.863 121.502 56.863C121.935 56.863 122.32 56.8551 122.686 56.8316C122.765 56.8748 122.773 57.0434 122.698 57.114L122.517 57.1296C122.049 57.1885 122.037 57.5022 122.037 58.0668V58.6942L122.033 58.6903Z" fill="#D0B480"/>
<path d="M132.577 57.9296C132.577 58.2668 132.577 59.5922 132.613 59.8785C132.585 59.9491 132.522 60.0001 132.4 60.0001C132.263 59.8118 131.94 59.4236 130.969 58.3217L128.381 55.3808C128.078 55.0396 127.319 54.1259 127.087 53.8828H127.06C127.016 54.0161 127.008 54.271 127.008 54.6083V57.0277C127.008 57.5532 127.016 59.0001 127.209 59.3334C127.28 59.4589 127.5 59.5217 127.775 59.5491L128.121 59.5844C128.192 59.6707 128.176 59.804 128.102 59.855C127.598 59.8314 127.209 59.8236 126.796 59.8236C126.328 59.8236 126.025 59.8314 125.636 59.855C125.557 59.804 125.545 59.6432 125.612 59.5844L125.915 59.5491C126.171 59.5138 126.348 59.4511 126.407 59.3256C126.556 58.9256 126.548 57.5689 126.548 57.0316V53.8162C126.548 53.5064 126.54 53.2672 126.301 53.0123C126.143 52.8554 125.876 52.7809 125.608 52.7456L125.423 52.726C125.353 52.6555 125.353 52.4868 125.439 52.4515C125.911 52.4829 126.505 52.4829 126.702 52.4829C126.879 52.4829 127.071 52.4751 127.217 52.4515C127.437 53.0162 128.755 54.4867 129.12 54.8984L130.206 56.1101C130.977 56.9689 131.519 57.5963 132.05 58.1257H132.074C132.117 58.0708 132.117 57.8943 132.117 57.659V55.2788C132.117 54.7534 132.105 53.3103 131.893 52.9731C131.826 52.8711 131.649 52.8045 131.201 52.7496L131.016 52.73C130.933 52.6594 130.945 52.4829 131.036 52.4555C131.551 52.4751 131.928 52.4868 132.353 52.4868C132.833 52.4868 133.124 52.479 133.506 52.4555C133.596 52.5104 133.596 52.6633 133.529 52.73L133.372 52.7496C133.014 52.8045 132.79 52.8946 132.75 52.9809C132.562 53.3809 132.581 54.7612 132.581 55.2749V57.9335L132.577 57.9296Z" fill="#D0B480"/>
</g>
<defs>
<clipPath id="clip0_1_373">
<rect width="150" height="60" fill="white"/>
</clipPath>
</defs>
</svg>
