<svg width="130" height="130" viewBox="0 0 130 130" fill="none" xmlns="http://www.w3.org/2000/svg">
<rect x="0.5" y="0.5" width="129" height="129" rx="64.5" stroke="#D0B480"/>
<g clip-path="url(#clip0_61_512)">
<path fill-rule="evenodd" clip-rule="evenodd" d="M40.3764 67.5202C39.9246 67.0577 39.671 66.4322 39.671 65.7803C39.671 65.1284 39.9246 64.5029 40.3764 64.0404L54.743 49.433C55.1945 48.9742 55.8058 48.7152 56.4441 48.7124C57.0823 48.7097 57.6958 48.9633 58.1512 49.4181L64.1576 55.4241L74.7143 41.2097L73.2792 41.5049C72.6517 41.6297 72.0012 41.4969 71.4697 41.1355C70.9381 40.7741 70.5689 40.2135 70.4425 39.5761C70.3162 38.9387 70.443 38.2763 70.7953 37.7337C71.1476 37.1911 71.6968 36.8124 72.3228 36.6802L79.7364 35.1573C80.3657 35.0293 81.0192 35.16 81.554 35.5207C82.0888 35.8814 82.4614 36.4428 82.5902 37.0821L84.0851 44.6243C84.208 45.2626 84.0774 45.9243 83.7221 46.4651C83.3667 47.0058 82.8153 47.3815 82.1884 47.5102C81.5616 47.6388 80.9101 47.51 80.3763 47.1517C79.8425 46.7935 79.4698 46.235 79.3396 45.5983L78.9594 43.6647L66.3591 60.627C66.1518 60.9064 65.8883 61.1376 65.5862 61.3052C65.284 61.4727 64.9501 61.5727 64.6069 61.5984C64.2637 61.6241 63.919 61.575 63.5959 61.4544C63.2729 61.3338 62.9789 61.1444 62.7336 60.8989L56.4661 54.6386L43.8008 67.5202C43.3466 67.9817 42.7307 68.241 42.0886 68.241C41.4465 68.241 40.8306 67.9817 40.3764 67.5202ZM62.4182 70.3913H66.7071V89.9699H62.4188V70.3919L62.4182 70.3913ZM92.081 89.9699H88.6946V54.5717C88.6936 53.9185 88.4377 53.2924 87.9832 52.831C87.5286 52.3696 86.9125 52.1105 86.2702 52.1107H77.1436C76.8259 52.1107 76.5113 52.1744 76.2177 52.2981C75.9242 52.4218 75.6575 52.6031 75.4329 52.8316C75.2082 53.0601 75.0301 53.3314 74.9086 53.63C74.7871 53.9286 74.7246 54.2486 74.7247 54.5717V89.9699H71.5453V67.9309C71.5454 67.6078 71.483 67.2878 71.3615 66.9893C71.24 66.6907 71.0618 66.4194 70.8372 66.1909C70.6126 65.9623 70.3459 65.781 70.0523 65.6573C69.7588 65.5337 69.4442 65.47 69.1264 65.47H59.9988C59.6811 65.47 59.3665 65.5337 59.0729 65.6573C58.7794 65.781 58.5127 65.9623 58.2881 66.1909C58.0634 66.4194 57.8853 66.6907 57.7638 66.9893C57.6423 67.2878 57.5798 67.6078 57.5799 67.9309V89.9699H54.3951V76.5402C54.3953 76.2171 54.3328 75.8971 54.2114 75.5985C54.0899 75.2999 53.9117 75.0286 53.6871 74.8C53.4625 74.5715 53.1957 74.3902 52.9022 74.2665C52.6086 74.1429 52.294 74.0793 51.9762 74.0793H42.8496C42.5319 74.0792 42.2172 74.1429 41.9237 74.2665C41.6301 74.3902 41.3633 74.5715 41.1387 74.8C40.914 75.0285 40.7359 75.2999 40.6144 75.5985C40.4929 75.8971 40.4305 76.2171 40.4306 76.5402V89.9699H37.9199C37.2781 89.9699 36.6626 90.2292 36.2088 90.6907C35.755 91.1522 35.5 91.7782 35.5 92.4309C35.5 93.0835 35.755 93.7095 36.2088 94.171C36.6626 94.6325 37.2781 94.8918 37.9199 94.8918H92.081C92.7228 94.8918 93.3383 94.6325 93.7921 94.171C94.246 93.7095 94.5009 93.0835 94.5009 92.4309C94.5009 91.7782 94.246 91.1522 93.7921 90.6907C93.3383 90.2292 92.7228 89.9699 92.081 89.9699Z" fill="#CAAC8F"/>
</g>
<defs>
<clipPath id="clip0_61_512">
<rect width="59" height="60" fill="white" transform="translate(35.5 35)"/>
</clipPath>
</defs>
</svg>
