<svg width="130" height="130" viewBox="0 0 130 130" fill="none" xmlns="http://www.w3.org/2000/svg">
<rect x="0.5" y="0.5" width="129" height="129" rx="64.5" stroke="#D0B480"/>
<g clip-path="url(#clip0_61_520)">
<path fill-rule="evenodd" clip-rule="evenodd" d="M65.8028 38.5585C71.8601 41.3243 78.2501 44.184 85.0698 43.7727L87.1218 43.6489V66.1041C87.1218 78.8237 77.8547 89.8242 65.3312 92.0074L64.9989 92.0653L64.6664 92.0074C52.1429 89.8242 42.876 78.8237 42.876 66.1041V43.6489L44.9279 43.7727C51.7477 44.184 58.1375 41.3241 64.195 38.5584L64.9989 38.1914L65.8028 38.5585ZM63.1076 68.1254L57.4447 62.4625C56.4266 61.4443 54.7753 61.4443 53.7572 62.4625C52.7391 63.4808 52.7391 65.1318 53.7572 66.1501L61.2684 73.6613C62.2867 74.6796 63.9377 74.6796 64.956 73.6613C69.4826 69.1347 73.9578 64.5571 78.4636 60.0098C79.4741 58.9899 79.4719 57.3448 78.453 56.3318C77.4349 55.3193 75.7855 55.321 74.7743 56.3423L63.1076 68.1254ZM64.9989 40.319C58.4804 43.2954 52.0031 46.1384 44.8113 45.7046V66.1041C44.8113 77.92 53.4374 88.0851 64.9989 90.1007C76.5603 88.0852 85.1864 77.9202 85.1864 66.1041V45.7046C77.9946 46.1383 71.5173 43.2954 64.9989 40.319ZM42.8242 40.5999C42.0936 40.4671 41.4115 40.647 40.8415 41.1228C40.2716 41.5987 39.9727 42.2376 39.9727 42.98V66.104C39.9727 80.7471 50.8977 92.9601 64.9989 95C79.1 92.9602 90.0251 80.7472 90.0251 66.1041V42.9801C90.0251 42.2377 89.7261 41.5987 89.1562 41.1229C88.5862 40.6471 87.904 40.4674 87.1734 40.6C79.7215 41.9529 73.2787 38.7638 64.9989 35C56.7191 38.7638 50.2762 41.9529 42.8242 40.5999Z" fill="#CAAC8F"/>
</g>
<defs>
<clipPath id="clip0_61_520">
<rect width="60" height="60" fill="white" transform="translate(35 35)"/>
</clipPath>
</defs>
</svg>
