<svg width="130" height="130" viewBox="0 0 130 130" fill="none" xmlns="http://www.w3.org/2000/svg">
<rect x="0.5" y="0.5" width="129" height="129" rx="64.5" stroke="#D0B480"/>
<path fill-rule="evenodd" clip-rule="evenodd" d="M53.1983 78.1995L48.8638 70.6456L54.5947 67.3731C56.1362 66.4939 57.6822 65.7822 59.3752 66.3245L59.3758 66.3246C61.6355 67.0473 65.3184 68.5853 69.0825 69.2694C69.851 69.5461 70.3527 70.3003 70.1391 71.0835L70.139 71.0841C69.9267 71.864 69.2435 72.2265 68.322 72.1291C66.264 71.709 64.3525 71.0923 62.2322 70.5303C61.6219 70.3685 60.9931 70.7259 60.8291 71.3279C60.6652 71.9299 61.0275 72.5499 61.6378 72.7117C63.8206 73.2903 65.7878 73.9219 67.9088 74.3514L67.9104 74.3518C67.9258 74.3549 67.9411 74.3576 67.9567 74.3601L69.1209 74.5469C69.1222 74.5472 69.1234 74.5473 69.1247 74.5476C70.8932 74.8253 72.5158 74.5777 74.0643 73.6878L83.4442 68.2995C87.2423 66.1172 88.8682 67.1851 88.8253 68.7746C88.8111 69.3009 88.6226 69.8357 88.2042 70.0898L71.1823 80.4263L71.1813 80.427C69.8948 81.2101 68.4843 81.3862 67.0245 81.002L54.6783 77.7386C54.3849 77.6611 54.0723 77.7016 53.8093 77.8515L53.1983 78.1995ZM56.2949 64.1621C55.9711 63.4103 55.7108 62.6313 55.5162 61.8342L52.638 60.7417V56.1054L55.5162 55.0129C55.8855 53.4954 56.4914 52.0527 57.3199 50.7266L56.0655 47.9439L59.3885 44.6662L62.2099 45.9034C63.5544 45.0865 65.0171 44.4887 66.551 44.1293L67.6634 41.2858H72.3642L73.472 44.1293C75.0057 44.4887 76.4685 45.0865 77.8129 45.9034L80.6343 44.6662L83.9575 47.9439L82.7077 50.7266C83.5362 52.0527 84.1421 53.4954 84.5065 55.0129L87.3848 56.1054V60.7417L84.5065 61.8342C84.1421 63.3471 83.5315 64.7898 82.7077 66.1158L82.7079 66.1161C82.5709 66.1898 82.4322 66.2669 82.2915 66.3478L72.9111 71.7362C72.6844 71.8665 72.4552 71.9762 72.2232 72.0664C72.271 71.9388 72.3137 71.8065 72.3508 71.6701C72.7929 70.0484 72.0662 68.4307 70.7 67.5561C75.5069 67.2084 79.2984 63.2508 79.2984 58.4209C79.2984 53.3625 75.1398 49.2661 70.0112 49.2661C64.8826 49.2661 60.7293 53.3625 60.7293 58.4209C60.7293 61.3573 62.1289 63.9714 64.3064 65.6478C62.6574 65.0934 61.1932 64.5313 60.0825 64.1761C58.7763 63.7578 57.5203 63.8168 56.2949 64.1621ZM45.2461 68.9269L52.9826 82.4097C53.3553 83.0636 53.12 83.8984 52.46 84.266L49.8293 85.7367C49.1662 86.1044 48.3199 85.8723 47.9471 85.2214L40.2107 71.7386C39.8348 71.0847 40.0702 70.2499 40.7302 69.8821L43.3639 68.4115C44.0239 68.0439 44.8703 68.276 45.2461 68.9269ZM43.4488 70.7995C42.8516 70.8836 42.4394 71.4304 42.5247 72.0194C42.6136 72.6082 43.1679 73.0184 43.765 72.9307C44.3621 72.8467 44.7744 72.2962 44.6891 71.7074C44.6002 71.1186 44.0458 70.7118 43.4488 70.7995ZM68.7208 60.2319L73.5012 55.4677C74.0675 54.9063 74.9919 54.9033 75.5613 55.4619C76.1306 56.0206 76.1336 56.9295 75.5672 57.4938C73.6274 59.4243 71.7023 61.3665 69.7537 63.2883C69.1844 63.8499 68.26 63.8499 67.6908 63.2883L64.4597 60.0987C63.8903 59.5373 63.8903 58.6284 64.4597 58.064C65.029 57.5025 65.9534 57.5025 66.5228 58.064L68.7208 60.2319ZM57.071 93.7977C57.6809 93.9609 58.0418 94.5818 57.8763 95.1835C57.7108 95.785 57.0812 96.141 56.4713 95.9776C45.4629 93.0315 36.7645 84.5237 33.6756 73.7076C33.5043 73.1076 33.859 72.4833 34.4673 72.3143C35.0757 72.1453 35.7086 72.4952 35.8801 73.0952C38.7516 83.1499 46.8374 91.059 57.071 93.7977ZM94.1227 73.0952C94.2941 72.4952 94.9271 72.1453 95.5354 72.3143C96.1437 72.4833 96.4984 73.1076 96.3271 73.7076C93.2862 84.3557 84.8089 92.7668 74.0426 95.8364C73.4355 96.0095 72.8001 95.6639 72.6246 95.065C72.4491 94.4663 72.7995 93.8395 73.4067 93.6664C83.415 90.813 91.2957 82.9939 94.1227 73.0952ZM72.8394 36.1768C72.229 36.0156 71.8662 35.3958 72.0297 34.7937C72.1933 34.1916 72.8217 33.8337 73.4322 33.9949C84.753 36.9865 93.6471 45.8554 96.5404 57.0767C96.6963 57.6808 96.3254 58.2959 95.7129 58.4497C95.1004 58.6033 94.4766 58.2375 94.3209 57.6334C91.6312 47.2023 83.3633 38.9577 72.8394 36.1768ZM35.8093 57.1558C35.6434 57.7573 35.0136 58.1127 34.4036 57.949C33.7939 57.7853 33.4336 57.1641 33.5995 56.5627C36.6303 45.5794 45.4322 36.9317 56.5879 33.9904C57.1984 33.8295 57.8266 34.1876 57.9898 34.7899C58.1531 35.392 57.7898 36.0116 57.1794 36.1726C46.8091 38.9069 38.6268 46.9458 35.8093 57.1558ZM65.0014 31.1172C66.7939 31.1172 68.2492 32.5525 68.2492 34.3205C68.2492 36.0884 66.7939 37.5238 65.0014 37.5238C63.2089 37.5238 61.7536 36.0884 61.7536 34.3205C61.7536 32.5525 63.2089 31.1172 65.0014 31.1172ZM99.3543 64.9995C99.3543 66.7675 97.899 68.2028 96.1065 68.2028C94.314 68.2028 92.8587 66.7675 92.8587 64.9995C92.8587 63.2316 94.314 61.7962 96.1065 61.7962C97.899 61.7962 99.3543 63.2316 99.3543 64.9995ZM65.0014 98.8819C63.2089 98.8819 61.7536 97.4466 61.7536 95.6786C61.7536 93.9106 63.2089 92.4753 65.0014 92.4753C66.7939 92.4753 68.2492 93.9106 68.2492 95.6786C68.2492 97.4466 66.7939 98.8819 65.0014 98.8819ZM30.6484 64.9995C30.6484 63.2316 32.1037 61.7962 33.8962 61.7962C35.6887 61.7962 37.144 63.2316 37.144 64.9995C37.144 66.7675 35.6887 68.2028 33.8962 68.2028C32.1037 68.2028 30.6484 66.7675 30.6484 64.9995Z" fill="#CAAC8F"/>
</svg>
