<svg width="130" height="130" viewBox="0 0 130 130" fill="none" xmlns="http://www.w3.org/2000/svg">
<rect x="0.5" y="0.5" width="129" height="129" rx="64.5" stroke="#D0B480"/>
<path d="M98.834 64.2715H96.1016V65.7268H98.834C99.2358 65.7268 99.5616 65.401 99.5616 64.9991C99.5616 64.5973 99.2358 64.2715 98.834 64.2715Z" fill="#CAAC8F"/>
<path d="M69.3833 39.0095V50.9377C72.8712 51.1136 76.1252 52.5559 78.6128 55.0435C81.0999 57.5306 82.5422 60.7846 82.7181 64.2725H94.6467H96.102V61.4785C96.102 61.0766 95.7758 60.7508 95.3744 60.7508H90.6813C90.1112 57.7889 88.9286 54.9355 87.2334 52.4317L90.5531 49.1116C90.6894 48.9752 90.7664 48.7903 90.7664 48.5972C90.7664 48.4046 90.6894 48.2192 90.5531 48.0829L85.5729 43.1032C85.2885 42.8188 84.8282 42.8188 84.5438 43.1032L81.2241 46.4228C78.7199 44.7277 75.8669 43.5446 72.905 42.9749V38.2823C72.905 37.8805 72.5787 37.5547 72.1773 37.5547H69.3828V38.2823V39.0095H69.3833Z" fill="#CAAC8F"/>
<path d="M82.7177 65.727C82.5417 69.215 81.0995 72.4689 78.6123 74.9561C76.1247 77.4437 72.8708 78.8859 69.3828 79.0619V90.99V91.7177V92.4453H72.1773C72.5787 92.4453 72.905 92.1195 72.905 91.7177V87.0246C75.8669 86.4549 78.7199 85.2719 81.2241 83.5767L84.5438 86.8968C84.6801 87.0332 84.8651 87.1097 85.0586 87.1097C85.2512 87.1097 85.4366 87.0332 85.5729 86.8968L90.5531 81.9162C90.8375 81.6323 90.8375 81.1715 90.5531 80.8875L87.2334 77.5674C88.9286 75.0636 90.1112 72.2102 90.6813 69.2483H95.3744C95.7758 69.2483 96.102 68.9225 96.102 68.5206V65.7266H94.6467H82.7177V65.727Z" fill="#CAAC8F"/>
<path d="M69.3828 52.3945V57.291C73.0724 57.6361 76.0185 60.5818 76.3637 64.2718H81.2601C80.8961 57.8877 75.767 52.759 69.3828 52.3945Z" fill="#CAAC8F"/>
<path d="M69.3828 72.7074V77.6039C75.767 77.2398 80.8961 72.1107 81.2601 65.7266H76.3637C76.0185 69.4166 73.0728 72.3623 69.3828 72.7074Z" fill="#CAAC8F"/>
<path d="M69.3828 58.7539V64.2718H74.9007C74.5664 61.3855 72.2696 59.0883 69.3828 58.7539Z" fill="#CAAC8F"/>
<path d="M74.9007 65.7266H69.3828V71.2445C72.2696 70.9101 74.5664 68.6129 74.9007 65.7266Z" fill="#CAAC8F"/>
<path d="M67.9297 92.4453V95.1782C67.9297 95.5796 68.2559 95.9058 68.6573 95.9058C69.0592 95.9058 69.385 95.5796 69.385 95.1782V92.4453H68.6573H67.9297Z" fill="#CAAC8F"/>
<path d="M69.3811 37.5543V34.8214C69.3811 34.42 69.0553 34.0938 68.6534 34.0938C68.252 34.0938 67.9258 34.42 67.9258 34.8214V37.5543H68.6534H69.3811Z" fill="#CAAC8F"/>
<path d="M67.9278 79.0627C64.4398 78.8867 61.1863 77.4445 58.6987 74.9569C56.2116 72.4697 54.7693 69.2158 54.5934 65.7278H42.6648H41.2095V68.5219C41.2095 68.9237 41.5357 69.2495 41.9371 69.2495H46.6302C47.2003 72.2114 48.3829 75.0649 50.0781 77.5687L46.7584 80.8888C46.474 81.1727 46.474 81.6335 46.7584 81.9175L51.7386 86.8981C51.8749 87.0344 52.0599 87.1109 52.2529 87.1109C52.446 87.1109 52.6314 87.0344 52.7677 86.8981L56.0874 83.578C58.5916 85.2731 61.4446 86.4562 64.4065 87.0259V90.9913H36.0178V39.0095H64.4061V42.9749C61.4442 43.5446 58.5912 44.7277 56.0869 46.4228L52.7673 43.1032C52.4829 42.8188 52.0225 42.8188 51.7381 43.1032L46.7584 48.0833C46.6221 48.2197 46.5451 48.4046 46.5451 48.5977C46.5451 48.7903 46.6221 48.9757 46.7584 49.112L50.0781 52.4321C48.3829 54.9359 47.2003 57.7894 46.6302 60.7513H41.9371C41.5357 60.7513 41.2095 61.0771 41.2095 61.4789V64.273H42.6648H54.5934C54.7693 60.785 56.2116 57.5311 58.6987 55.0439C61.1863 52.5563 64.4398 51.1141 67.9278 50.9381V39.0095V37.5547H65.1337H35.2902H31.1691C30.7672 37.5547 30.4414 37.8805 30.4414 38.2823C30.4414 38.6842 30.7672 39.01 31.1691 39.01H34.563V90.9908H31.1691C30.7672 90.9908 30.4414 91.3166 30.4414 91.7185C30.4414 92.1203 30.7672 92.4461 31.1691 92.4461H35.2902H65.1337H67.9278V90.9908V79.0627Z" fill="#CAAC8F"/>
<path d="M60.9472 65.7266H56.0508C56.4148 72.1107 61.5439 77.2394 67.9276 77.6039V72.7074C64.2376 72.3618 61.2924 69.4161 60.9472 65.7266Z" fill="#CAAC8F"/>
<path d="M67.9276 71.2445V65.7266H62.4102C62.7445 68.6129 65.0413 70.9101 67.9276 71.2445Z" fill="#CAAC8F"/>
<path d="M62.4102 64.2718H67.9276V58.7539C65.0413 59.0883 62.7445 61.3855 62.4102 64.2718Z" fill="#CAAC8F"/>
<path d="M56.0508 64.2718H60.9472C61.2924 60.5823 64.2376 57.6361 67.9276 57.291V52.3945C61.5439 52.759 56.4148 57.8877 56.0508 64.2718Z" fill="#CAAC8F"/>
<path d="M37.75 64.9991C37.75 65.401 38.0758 65.7268 38.4777 65.7268H41.2101V64.2715H38.4777C38.0758 64.2715 37.75 64.5973 37.75 64.9991Z" fill="#CAAC8F"/>
</svg>
