<svg width="130" height="130" viewBox="0 0 130 130" fill="none" xmlns="http://www.w3.org/2000/svg">
<rect x="0.5" y="0.5" width="129" height="129" rx="64.5" stroke="#D0B480"/>
<path fill-rule="evenodd" clip-rule="evenodd" d="M55.7731 40.9402L36.8513 46.0102C36.752 46.0368 36.7084 46.1248 36.7413 46.2212C37.3781 48.0849 38.0389 48.8893 38.7577 49.1358C39.3845 49.3508 40.2205 49.1902 41.1666 48.9469C41.4148 48.3448 41.7209 47.7833 42.0994 47.2527C42.4486 46.7619 43.1295 46.6471 43.6203 46.9963C44.1111 47.3455 44.2259 48.0265 43.8767 48.5173C43.3256 49.2899 42.9659 50.1894 42.7942 51.121L40.9727 60.9976C40.955 61.0932 41.0186 61.1819 41.1164 61.1913C41.657 61.243 42.2133 61.2605 42.597 61.1237C42.7786 61.059 42.9192 60.9193 42.9702 60.6504L43.6298 52.969C43.7786 51.236 44.5708 49.7665 45.937 48.6901L55.7731 40.9402ZM57.233 76.6524C57.233 76.0483 57.7227 75.5587 58.3267 75.5587C58.9308 75.5587 59.4205 76.0483 59.4205 76.6524V80.2026C59.4205 80.8066 58.9308 81.2963 58.3267 81.2963C57.7227 81.2963 57.233 80.8066 57.233 80.2026V76.6524ZM47.6933 77.6749C47.3913 77.1535 47.5692 76.4858 48.0906 76.1838C48.612 75.8818 49.2797 76.0598 49.5817 76.5812L51.3567 79.6557C51.6588 80.1771 51.4808 80.8448 50.9594 81.1468C50.438 81.4488 49.7703 81.2708 49.4683 80.7494L47.6933 77.6749ZM67.0719 76.5854C67.3716 76.064 68.0372 75.8841 68.5588 76.1838C69.0802 76.4835 69.26 77.1491 68.9603 77.6707L67.1853 80.7452C66.8856 81.2666 66.22 81.4465 65.6984 81.1468C65.177 80.8471 64.9972 80.1815 65.2969 79.6599L67.0719 76.5854ZM61.0036 87.7335L58.3267 84.8319L55.6498 87.7335H61.0036ZM53.4989 86.8454L52.3913 84.2327H55.9091L53.4989 86.8454ZM60.7445 84.2329H64.2623L63.1547 86.8455L60.7445 84.2329ZM47.903 87.7335H51.5086L50.392 85.1001L47.903 87.7335ZM65.1448 87.7335H68.7506L66.2614 85.0999L65.1448 87.7335ZM68.9942 89.921H64.288L61.0798 99.7037L68.9942 89.921ZM61.9902 89.921L58.3267 101.092L54.6634 89.921H61.9902ZM52.3656 89.921H47.6594L55.5738 99.7037L52.3656 89.921ZM82.5241 29.9135L85.9803 28.9874C87.247 28.648 88.5569 29.4043 88.8963 30.6709L93.1847 46.6757C93.5241 47.9423 92.7678 49.2523 91.5011 49.5916L88.0448 50.5177C86.7781 50.8571 85.4683 50.1008 85.1289 48.8343L80.8406 32.8294C80.5013 31.5629 81.2575 30.2529 82.5241 29.9135ZM51.8058 49.2196L48.3477 55.2093C47.5159 56.648 47.3056 58.2383 47.7356 59.8433L49.0709 64.8271C48.9094 65.2335 48.6395 65.5638 48.2936 65.8187C47.7897 66.1901 47.1195 66.4194 46.3681 66.5082C45.46 66.6157 44.7148 65.8891 44.793 64.9785L45.8089 53.1482C45.9061 52.0168 46.3953 51.1099 47.2872 50.4073L60.6172 39.9044C60.9663 39.6294 61.3131 39.4555 61.7423 39.3405L79.0758 34.696L82.1666 46.2309L81.6756 46.3513C80.2714 46.6959 79.203 47.728 78.9155 49.1593L77.122 58.0876C76.8022 59.6793 75.8892 60.899 74.4513 61.6527L64.1525 67.0529C63.8658 67.1821 63.2941 67.5827 62.9873 67.3419C62.6748 67.0965 62.4363 66.4777 62.2269 65.696C61.71 63.7668 63.4378 62.5468 64.8963 61.7046L68.3009 59.7129C69.7155 58.8854 70.5031 57.3954 70.3823 55.7599L70.2353 53.7712C70.0702 51.5333 67.9175 49.9652 65.7144 50.5555L60.243 52.0216C58.9825 52.3593 57.9798 53.126 57.3178 54.2498L55.2359 57.7838C54.7345 58.6351 54.6031 59.5838 54.8589 60.5385L56.7077 67.438C57.0484 68.7099 57.0169 69.5779 56.6922 70.1826C56.3711 70.7805 55.7088 71.2155 54.802 71.5918C54.0006 71.9243 53.1175 71.4896 52.893 70.6512L49.8459 59.2793C49.5627 58.2219 49.6872 57.2508 50.2358 56.3029L53.6939 50.3132C53.9959 49.7918 53.818 49.1241 53.2966 48.8221C52.7755 48.5202 52.1078 48.698 51.8058 49.2196Z" fill="#CAAC8F"/>
</svg>
